STARTFONT 2.1
FONT -FontForge-Sweet Winter Regular-Regular-R-Normal--35-340-75-75-P-312-ISO10646-1
SIZE 34 75 75
FONTBOUNDINGBOX 64 77 -5 -8
COMMENT "Generated by fontforge, http://fontforge.sourceforge.net"
COMMENT "Sweet Winter Yumna Type. 2019. All Rights Reserved"
STARTPROPERTIES 40
FOUNDRY "FontForge"
FAMILY_NAME "Sweet Winter Regular"
WEIGHT_NAME "Regular"
SLANT "R"
SETWIDTH_NAME "Normal"
ADD_STYLE_NAME ""
PIXEL_SIZE 35
POINT_SIZE 340
RESOLUTION_X 75
RESOLUTION_Y 75
SPACING "P"
AVERAGE_WIDTH 312
CHARSET_REGISTRY "ISO10646"
CHARSET_ENCODING "1"
FONTNAME_REGISTRY ""
CHARSET_COLLECTIONS "ISO10646-1"
FONT_NAME "SweetWinter-Regular"
FACE_NAME "Sweet Winter Regular"
COPYRIGHT "Sweet Winter Yumna Type. 2019. All Rights Reserved"
FONT_VERSION "1.000"
FONT_ASCENT 28
FONT_DESCENT 7
UNDERLINE_POSITION -4
UNDERLINE_THICKNESS 2
X_HEIGHT 44
CAP_HEIGHT 50
DEFAULT_CHAR 1
RAW_ASCENT 800
RAW_DESCENT 200
NORM_SPACE 14
RELATIVE_WEIGHT 40
RELATIVE_SETWIDTH 50
SUPERSCRIPT_X 3
SUPERSCRIPT_Y 12
SUPERSCRIPT_SIZE 22
SUBSCRIPT_X 0
SUBSCRIPT_Y 4
SUBSCRIPT_SIZE 22
AVG_LOWERCASE_WIDTH 341
AVG_UPPERCASE_WIDTH 340
ENDPROPERTIES
CHARS 203
STARTCHAR .null.dup1
ENCODING 0
SWIDTH 0 0
DWIDTH 0 0
BBX 1 1 0 0
BITMAP
00
ENDCHAR
STARTCHAR .null
ENCODING 29
SWIDTH 0 0
DWIDTH 0 0
BBX 1 1 0 0
BITMAP
00
ENDCHAR
STARTCHAR space
ENCODING 32
SWIDTH 400 0
DWIDTH 14 0
BBX 1 1 0 0
BITMAP
00
ENDCHAR
STARTCHAR exclam
ENCODING 33
SWIDTH 459 0
DWIDTH 16 0
BBX 12 50 1 -2
BITMAP
0F80
1FE0
3FE0
3FF0
3FF0
3FF0
7FF0
7FF0
7FF0
7FF0
7FF0
7FF0
7FF0
7FF0
7FF0
7FF0
7FF0
7FF0
7FF0
7FF0
FFF0
FFF0
FFF0
FFF0
FFF0
FFF0
FFF0
FFF0
FFF0
FFF0
FFF0
FFF0
FFF0
7FE0
3FC0
0200
0000
0000
3F00
7F80
FFC0
FFC0
FFE0
FFE0
FFE0
FFE0
FFE0
FFE0
7FC0
1F00
ENDCHAR
STARTCHAR quotedbl
ENCODING 34
SWIDTH 585 0
DWIDTH 20 0
BBX 17 16 0 36
BITMAP
380E00
3C0F00
7E1F80
7E1F80
7E1F80
7E1F80
FE3F80
FE3F80
FF3F80
FF3F80
FE3F80
FE3F80
FE3F80
7E3F80
7E1F80
1C0600
ENDCHAR
STARTCHAR numbersign
ENCODING 35
SWIDTH 1334 0
DWIDTH 47 0
BBX 46 41 -1 2
BITMAP
00078001F800
0007E001F800
000FE003FC00
000FE003FC00
000FE003FC00
001FE003FC00
001FF007FC00
001FF007FC00
001FF007FF80
001FF3FFFFF8
001FFFFFFFF8
00FFFFFFFFFC
07FFFFFFFFF8
1FFFFFFFFFC0
1FFFFC07FC00
001FF007FC00
001FE007FC00
001FE007FC00
001FE007FC00
001FE00FFC00
001FE00FFC00
001FE00FFC00
001FF03FFC00
00FFFFFFFFE0
1FFFFFFFFFF8
FFFFFFFFFFFC
FFFFFFFFFFFC
3FFFFFFFFFE0
03FFF00FFC00
001FF00FFC00
001FF00FFC00
001FF00FFC00
003FF00FFC00
003FF00FFC00
001FF00FFC00
001FF00FF800
001FF00FF800
001FE00FF800
000FE00FF800
0007C00FF800
00000007F000
ENDCHAR
STARTCHAR dollar
ENCODING 36
SWIDTH 892 0
DWIDTH 31 0
BBX 27 61 1 -7
BITMAP
00078000
000FC000
000FC000
001FC000
001FC000
001FC000
003FC000
003FC000
01FFF800
07FFFE00
0FFFFF00
1FFDFF80
3FF07F80
7FC07FC0
7FC03FC0
FF803FC0
FF803FC0
FF003FC0
FF003FC0
FF003FC0
FF803FC0
FF801FC0
FFC01F80
FFE01F80
7FF00E00
7FF80000
3FFC0000
3FFE0000
1FFF8000
0FFFC000
03FFF000
01FFF800
00FFFE00
003FFF00
001FFF80
000FFF80
0703FFC0
3FC1FFC0
7FC0FFE0
7FC0FFE0
FF807FE0
FF807FE0
FF807FE0
FF803FE0
FF803FE0
FF803FE0
FFC07FE0
7FE0FFC0
7FF1FFC0
3FFFFF80
1FFFFF00
0FFFFE00
03FFF800
007FC000
003FC000
003FC000
003FC000
003FC000
003FE000
001FC000
00070000
ENDCHAR
STARTCHAR percent
ENCODING 37
SWIDTH 1382 0
DWIDTH 48 0
BBX 46 46 1 0
BITMAP
01FC0007E000
07FF800FE000
1FFFC01FE000
3FFFE03FE000
7FCFF03FE000
FF07F07FC000
FF03F07FC000
FF03F8FFC000
FF03F8FF8000
FF03F9FF8000
FF03F1FF0000
FF87F3FF0000
FF8FF3FE0000
7FFFE7FE0000
3FFFC7FE0000
1FFF07FC0000
07FC0FFC0000
00000FF80000
00001FF80000
00001FF80000
00003FF00000
00003FF00000
00003FE00000
00007FE00000
00007FE00000
0000FFC00000
0000FFC00000
0000FF800000
0001FF80FE00
0001FF83FFC0
0003FF0FFFE0
0003FF1FFFF0
0003FF3FE7F0
0007FE7F83F8
0007FE7F81F8
000FFC7F81F8
000FFCFF81FC
000FFCFF81FC
001FF87F81F8
001FF87F83F8
001FF07FC7F0
003FF03FFFF0
003FF01FFFE0
003FE00FFF80
003FE003FE00
001FC0000000
ENDCHAR
STARTCHAR ampersand
ENCODING 38
SWIDTH 1465 0
DWIDTH 51 0
BBX 48 46 0 0
BITMAP
0000F0000000
000FFF000000
003FFFC00000
007FFFE00000
00FFCFE00000
01FF8FF00000
01FF0FF00000
03FE0FF00000
03FE0FF00000
07FE0FF00000
07FC0FF00000
07FC1FF00000
07FC1FF00000
07FC3FE00000
07FC7FE00000
07FCFFC00000
07FCFF800000
07FC7F000000
07FC0C000000
03FE00000000
03FE00000000
03FE00000000
03FF00038000
01FF001FE000
07FF001FF000
0FFF801FF000
1FFF801FF000
3FFFC01FF000
7FFFC01FF000
7FFFE01FF000
7FFFF01FF000
7FDFF01FF07C
FF9FF83FE0FF
FF8FFC3FE1FF
FF87FE7FC1FF
FFC3FF7FC1FF
FFC3FFFF81FF
7FC1FFFF83FF
7FC0FFFF03FE
3FE03FFE0FFE
3FF01FFFFFFC
1FFFFFFFFFF8
0FFFFFFFFFE0
07FFFFFFFFC0
01FFFF1FFE00
007FF8000000
ENDCHAR
STARTCHAR quotesingle
ENCODING 39
SWIDTH 272 0
DWIDTH 10 0
BBX 8 16 0 36
BITMAP
18
3E
3E
7F
7F
7F
7F
FF
FF
FF
FF
FF
7F
7F
7E
1C
ENDCHAR
STARTCHAR parenleft
ENCODING 40
SWIDTH 805 0
DWIDTH 28 0
BBX 25 51 0 -2
BITMAP
00007F00
0001FF00
0007FE00
001FFC00
003FF800
007FF000
00FFE000
01FFC000
03FF8000
07FF8000
07FF0000
0FFE0000
1FFE0000
1FFC0000
3FFC0000
3FF80000
3FF80000
7FF80000
7FF00000
7FF00000
FFF00000
FFF00000
FFF00000
FFF00000
FFE00000
FFE00000
FFF00000
FFF00000
FFF00000
FFF00000
FFF00000
FFF00000
7FF00000
7FF80000
7FF80000
3FF80000
3FF80000
3FFC0000
1FFC0000
1FFE0000
0FFE0000
0FFF0000
07FF8000
03FFC000
01FFC000
01FFE000
00FFF800
007FFC00
001FFF00
000FFF80
0001FE00
ENDCHAR
STARTCHAR parenright
ENCODING 41
SWIDTH 822 0
DWIDTH 29 0
BBX 25 51 1 -2
BITMAP
7E000000
7FC00000
3FF00000
1FF80000
0FFE0000
07FF0000
03FF8000
01FFC000
00FFE000
00FFE000
007FF000
003FF800
003FF800
001FFC00
001FFC00
000FFE00
000FFE00
000FFF00
0007FF00
0007FF00
0007FF00
0007FF80
0007FF80
0007FF80
0007FF80
0007FF80
0007FF80
0007FF80
0007FF80
0007FF80
0007FF80
0007FF00
0007FF00
000FFF00
000FFF00
000FFE00
001FFE00
001FFC00
003FFC00
003FF800
007FF800
007FF000
00FFF000
01FFE000
03FFC000
07FF8000
0FFF8000
1FFE0000
7FFC0000
FFF80000
3FC00000
ENDCHAR
STARTCHAR asterisk
ENCODING 42
SWIDTH 862 0
DWIDTH 30 0
BBX 28 27 0 21
BITMAP
07E03F00
0FF07F00
07F9FF00
07FFFF00
03FFFE00
03FFFE00
01FFFC00
01FFF800
00FFF800
00FFFF00
1FFFFFC0
7FFFFFF0
FFFFFFF0
FFFFFFE0
7FFFFF80
3FFFF800
03FFF800
03FFFC00
07FFFC00
07FFFE00
0FFFFE00
0FFDFE00
0FF9FF00
0FF8FF80
07F0FF80
01C07F80
00001C00
ENDCHAR
STARTCHAR plus
ENCODING 43
SWIDTH 1000 0
DWIDTH 35 0
BBX 33 28 0 7
BITMAP
0003E00000
0007F00000
0007F00000
000FF00000
000FF00000
000FF00000
000FF00000
000FF00000
001FF00000
07FFF00000
3FFFFF8000
7FFFFFFE00
FFFFFFFF00
FFFFFFFF80
7FFFFFFF80
3FFFFFFF00
07FFFFFC00
001FF00000
001FF00000
001FF00000
003FF00000
003FF00000
003FF00000
001FF00000
001FF00000
001FF00000
000FE00000
0007C00000
ENDCHAR
STARTCHAR comma
ENCODING 44
SWIDTH 451 0
DWIDTH 16 0
BBX 11 18 1 -8
BITMAP
0C00
7F80
FF80
7FC0
7FC0
7FE0
7FE0
7FE0
7FE0
7FE0
7FE0
7FC0
7FC0
7FC0
7F80
7F00
FE00
F000
ENDCHAR
STARTCHAR hyphen
ENCODING 45
SWIDTH 1000 0
DWIDTH 35 0
BBX 31 7 0 13
BITMAP
1FFFFE00
3FFFFFF8
7FFFFFFE
FFFFFFFE
7FFFFFFC
7FFFFFF8
1FFFFFE0
ENDCHAR
STARTCHAR period
ENCODING 46
SWIDTH 411 0
DWIDTH 14 0
BBX 11 12 1 -1
BITMAP
0600
7F80
7FC0
FFC0
FFE0
FFE0
FFE0
FFE0
FFE0
FFE0
7FE0
3F80
ENDCHAR
STARTCHAR slash
ENCODING 47
SWIDTH 796 0
DWIDTH 28 0
BBX 23 50 1 0
BITMAP
00007C
0000FC
0001FE
0001FC
0003FC
0007FC
0007FC
0007FC
000FFC
000FFC
001FFC
001FF8
003FF8
003FF8
003FF8
007FF0
007FF0
007FF0
00FFE0
00FFE0
00FFE0
00FFE0
01FFC0
01FFC0
01FFC0
03FF80
03FF80
03FF80
07FF00
07FF00
07FF00
0FFE00
0FFE00
0FFE00
1FFE00
1FFC00
1FFC00
3FFC00
3FF800
3FF800
7FF800
7FF000
7FF000
FFF000
FFF000
FFE000
FFE000
FFC000
FF8000
7F8000
ENDCHAR
STARTCHAR zero
ENCODING 48
SWIDTH 1054 0
DWIDTH 37 0
BBX 35 47 0 -1
BITMAP
0007FF0000
001FFFC000
007FFFF000
00FFFFF800
01FF87FC00
03FF03FE00
07FE03FE00
0FFC01FF00
0FFC01FF00
1FF800FF80
3FF800FF80
3FF0007FC0
7FF0007FC0
7FF0007FC0
7FE0007FC0
7FE0007FE0
FFE0007FE0
FFE0007FE0
FFC0003FE0
FFC0003FE0
FFC0003FE0
FFC0007FE0
FFC0007FE0
FFC0007FE0
FFC0007FE0
FFC0007FE0
FFC0007FE0
FFC0007FE0
FFC0007FE0
FFE0007FE0
7FE000FFE0
7FE000FFC0
7FE000FFC0
7FE000FFC0
3FF001FFC0
3FF001FF80
1FF801FF80
1FF803FF80
0FFC03FF00
0FFE07FF00
07FF9FFE00
03FFFFFC00
01FFFFF800
00FFFFF000
003FFFE000
0007FF8000
0000380000
ENDCHAR
STARTCHAR one
ENCODING 49
SWIDTH 630 0
DWIDTH 22 0
BBX 20 47 -1 0
BITMAP
001F00
007F80
00FF80
01FFC0
03FFC0
0FFFC0
7FFFE0
FF7FE0
007FE0
007FE0
007FE0
007FE0
007FE0
007FE0
007FE0
007FE0
007FE0
007FE0
007FF0
007FF0
007FF0
007FF0
007FF0
007FF0
007FF0
007FF0
007FF0
007FF0
007FF0
007FF0
007FE0
007FE0
007FE0
007FE0
007FE0
007FE0
003FE0
003FE0
003FE0
003FE0
003FE0
003FE0
003FC0
003FC0
003FC0
003FC0
003F80
ENDCHAR
STARTCHAR two
ENCODING 50
SWIDTH 800 0
DWIDTH 28 0
BBX 27 49 -1 -1
BITMAP
007F8000
01FFF000
03FFF800
07FFFC00
0FE3FE00
1FE1FF00
1FC0FF00
1FC0FF80
3F80FF80
3F807F80
3F807FC0
3F807FC0
3F807FC0
3F807FC0
3F807FC0
3F807FC0
1F807FC0
1F807FC0
1F807FC0
0600FFC0
0000FFC0
0000FF80
0001FF80
0001FF80
0003FF80
0003FF00
0007FF00
0007FE00
000FFE00
000FFC00
001FFC00
003FF800
003FF000
007FE000
00FFC000
01FF8000
03FF0000
07FE0000
0FFC0000
1FFC0000
1FF80000
3FF00000
7FE7FF80
7FFFFFE0
FFFFFFE0
FFFFFFE0
7FFFFFC0
3FFFFF00
007E0000
ENDCHAR
STARTCHAR three
ENCODING 51
SWIDTH 866 0
DWIDTH 30 0
BBX 26 49 1 -1
BITMAP
00FF8000
03FFF000
0FFFF800
1FF1FC00
3FE0FE00
3FC07F00
7FC07F80
7F807F80
FF807FC0
FF807FC0
FF807FC0
FF007FC0
FF007FC0
FF007FC0
FF007FC0
FF00FFC0
7F00FFC0
7E00FFC0
3E01FF80
1801FF80
0003FF00
0007FE00
000FFC00
003FF800
03FFF000
07FFE000
01FFF000
000FF800
0003FC00
0001FE00
0E01FF00
3F81FF80
7F80FF80
7FC0FFC0
FFC0FFC0
FFC0FFC0
FFC0FFC0
FFC0FFC0
FFC0FFC0
FFC0FFC0
7FE0FF80
7FE0FF80
7FF1FF00
3FF1FE00
1FFFFC00
1FFFF800
07FFF000
03FFC000
007E0000
ENDCHAR
STARTCHAR four
ENCODING 52
SWIDTH 840 0
DWIDTH 29 0
BBX 28 47 0 0
BITMAP
003C0000
007C1F00
00FE1F00
01FE3F00
03FE3F80
03FE7F80
07FC7F80
07FC7F80
0FFC7F80
0FF87FC0
0FF87FC0
1FF87FC0
1FF87FC0
1FF07FC0
1FF07FC0
3FF07FC0
3FF07FC0
3FE07FC0
3FE07FC0
7FE07FC0
7FE07FC0
7FC07FC0
7FC07FC0
FFC0FFC0
FFC0FFC0
FF80FFC0
FF80FFC0
FF80FFC0
FF80FF80
FFFFFF80
7FFFFFF0
3FFFFFF0
0FFFFFE0
0000FF80
0000FF80
0000FF80
0000FF80
0000FF80
0000FF80
0000FF80
0000FF80
0000FF00
0000FF00
0000FF00
0000FF00
00007F00
00003E00
ENDCHAR
STARTCHAR five
ENCODING 53
SWIDTH 879 0
DWIDTH 31 0
BBX 29 47 1 0
BITMAP
003FFFE0
07FFFFF0
0FFFFFF0
1FFFFFE0
1FFFE000
3FF00000
3FE00000
3FE00000
7FE00000
7FE00000
7FE00000
7FE00000
7FE00000
7FE00000
7FE00000
FFC00000
FFC00000
FFC00000
FFC00000
FFC00000
FFFFE000
FFFFF800
FFFFFE00
7FFFFF00
7FF0FF80
3FC07FC0
1F007FE0
00003FE0
00003FF0
00003FF0
00001FF8
00001FF8
00001FF8
1F801FF8
3F801FF8
7F801FF8
7F803FF8
7F803FF8
7F803FF0
7F807FF0
7FC0FFE0
3FC0FFC0
3FF3FF80
1FFFFF00
0FFFFE00
07FFF800
01FFC000
ENDCHAR
STARTCHAR six
ENCODING 54
SWIDTH 910 0
DWIDTH 32 0
BBX 32 47 0 -1
BITMAP
0003FC00
000FF800
001FF000
003FE000
007FC000
00FF8000
01FF8000
03FF0000
03FF0000
07FE0000
0FFE0000
0FFC0000
1FFC0000
1FF80000
1FF80000
3FF80000
3FF00000
7FF00000
7FF00000
7FE7F800
7FFFFF00
FFFFFFC0
FFFFFFE0
FFFFFFF8
FFFE1FF8
FFF807FC
FFF003FE
FFE003FE
FFE001FE
FFE001FE
FFC001FF
FFC001FF
FFC001FF
7FC001FF
7FC001FF
7FE001FE
3FE001FE
3FE003FE
1FF003FE
1FF007FC
0FF80FFC
07FE3FF8
03FFFFF0
01FFFFE0
00FFFF80
001FFE00
0000C000
ENDCHAR
STARTCHAR seven
ENCODING 55
SWIDTH 853 0
DWIDTH 30 0
BBX 26 47 1 -1
BITMAP
1FFFF800
7FFFFF80
FFFFFFC0
7FFFFFC0
0FFFFFC0
00003FC0
00007FC0
00007FC0
00007F80
0000FF80
0000FF80
0000FF80
0001FF80
0001FF00
0003FF00
0003FF00
0003FF00
0007FE00
0007FE00
000FFE00
000FFC00
001FFC00
001FFC00
001FF800
003FF800
003FF800
003FF000
007FF000
007FE000
00FFE000
00FFC000
00FFC000
01FFC000
01FF8000
03FF8000
03FF0000
03FF0000
07FE0000
07FE0000
07FC0000
0FFC0000
0FF80000
1FF80000
1FF00000
1FF00000
0FE00000
03800000
ENDCHAR
STARTCHAR eight
ENCODING 56
SWIDTH 975 0
DWIDTH 34 0
BBX 32 48 0 -1
BITMAP
003FFE00
01FFFFC0
07FFFFE0
0FFFFFF0
1FFC3FF8
3FF01FFC
3FE00FFC
7FC007FE
7FC007FE
7FC007FE
7FC007FE
7FC007FE
7FC00FFE
7FC00FFC
3FC00FFC
3FE01FFC
3FE01FF8
1FF03FF8
1FF87FF0
0FF8FFE0
07FDFFE0
03FFFFC0
01FFFF80
007FFE00
01FFFC00
03FFFF00
07FFFF80
0FFFFFE0
1FFE3FF0
3FFC1FF8
3FF80FFC
7FF007FC
7FE007FE
FFE003FE
FFE003FE
FFC003FF
FFC003FF
FFC003FF
FFC003FF
7FE003FF
7FE003FF
7FE007FE
3FF007FE
1FF80FFC
0FFC3FFC
07FFFFF8
03FFFFE0
007FFF80
ENDCHAR
STARTCHAR nine
ENCODING 57
SWIDTH 967 0
DWIDTH 34 0
BBX 31 46 1 0
BITMAP
007FF000
03FFFE00
07FFFF00
0FFFFFC0
1FFC7FE0
3FF01FE0
7FE01FF0
7FC00FF8
7F800FF8
FF8007FC
FF8007FC
FF0007FC
FF0007FE
FF0007FE
FF0007FE
FF0007FE
FF8007FE
FF800FFE
FF800FFE
7FC01FFE
7FC03FFE
3FF07FFE
1FFFFFFE
0FFFFFFE
03FFFFFE
00FFFFFC
001FEFFC
00001FFC
00001FFC
00001FF8
00003FF8
00003FF0
00007FF0
00007FE0
0000FFE0
0000FFC0
0001FFC0
0001FF80
0003FF00
0007FE00
0007FE00
000FFC00
001FF800
003FE000
007FC000
00FF0000
ENDCHAR
STARTCHAR colon
ENCODING 58
SWIDTH 389 0
DWIDTH 14 0
BBX 11 35 0 4
BITMAP
3F80
7FC0
FFC0
FFC0
FFE0
FFE0
FFE0
FFE0
FFE0
FFE0
7FC0
0C00
0000
0000
0000
0000
0000
0000
0000
0000
0000
0000
0000
0F00
3FC0
7FC0
7FE0
7FE0
FFE0
FFE0
FFE0
FFE0
7FE0
7FE0
1F80
ENDCHAR
STARTCHAR semicolon
ENCODING 59
SWIDTH 429 0
DWIDTH 15 0
BBX 12 37 0 2
BITMAP
3F80
7FC0
7FE0
7FE0
FFE0
FFE0
FFE0
FFE0
FFE0
7FE0
3FC0
0400
0000
0000
0000
0000
0000
0000
0000
0000
3F80
7FC0
7FE0
3FE0
3FE0
3FE0
3FF0
3FF0
3FF0
3FE0
3FE0
3FE0
3FC0
3FC0
7F80
7F00
FC00
ENDCHAR
STARTCHAR less
ENCODING 60
SWIDTH 1000 0
DWIDTH 35 0
BBX 33 25 0 11
BITMAP
0000007800
000003FE00
00000FFF00
00007FFF00
0001FFFF00
0007FFFE00
001FFFF800
00FFFFE000
03FFFF8000
0FFFFC0000
1FFFE00000
7FFF800000
FFFE000000
FFF8000000
FFFE000000
7FFF800000
3FFFF00000
0FFFFE0000
03FFFFC000
007FFFFC00
000FFFFF00
0001FFFF00
00007FFF80
00000FFF00
000001FE00
ENDCHAR
STARTCHAR equal
ENCODING 61
SWIDTH 1000 0
DWIDTH 35 0
BBX 32 20 0 10
BITMAP
0FFFF800
3FFFFFE0
7FFFFFFE
FFFFFFFE
FFFFFFFC
7FFFFFF8
3FFFFFE0
00000000
00000000
00000000
00000000
00000000
00000000
07FFFF80
1FFFFFFC
3FFFFFFF
3FFFFFFF
3FFFFFFF
1FFFFFFE
07FFFFF0
ENDCHAR
STARTCHAR greater
ENCODING 62
SWIDTH 1000 0
DWIDTH 35 0
BBX 32 25 0 11
BITMAP
0F000000
3FE00000
7FF80000
7FFE0000
7FFF8000
3FFFE000
1FFFFC00
07FFFF00
00FFFFC0
001FFFF0
0007FFFC
0001FFFE
00003FFF
00001FFF
00003FFF
0001FFFE
0007FFFC
003FFFF8
03FFFFC0
1FFFFF00
7FFFF800
FFFFC000
FFFE0000
FFF80000
7F800000
ENDCHAR
STARTCHAR question
ENCODING 63
SWIDTH 866 0
DWIDTH 30 0
BBX 24 50 2 -1
BITMAP
00F800
07FF80
1FFFE0
3FFFF0
7FEFF8
7F87FC
FF03FE
FF01FE
FF01FF
FE01FF
FE00FF
FE00FF
FF00FF
FF00FF
FF01FF
7F01FF
7F03FF
3F03FE
0407FE
000FFC
001FFC
001FF8
003FF0
007FF0
00FFE0
01FFC0
01FFC0
03FF80
03FF00
07FF00
07FE00
07FE00
07FC00
03FC00
01E000
000000
000000
000000
03F800
07FC00
07FC00
07FE00
0FFE00
0FFE00
0FFE00
0FFE00
0FFE00
07FE00
03FC00
004000
ENDCHAR
STARTCHAR at
ENCODING 64
SWIDTH 1785 0
DWIDTH 62 0
BBX 59 59 0 -8
BITMAP
0000000FC0000000
000003FFFF000000
00001FFFFFE00000
0000FFFFFFFC0000
0003FFFFFFFF0000
000FFFC00FFF8000
001FFE0001FFE000
003FF800007FF000
00FFE000001FF800
01FF8000000FFC00
03FF00000007FE00
03FE00000003FE00
07FC007F0001FF00
0FF801FFC000FF80
0FF803FFE0007F80
1FF007FFF0007FC0
1FF007F3F8007FC0
3FE00FE1F8003FC0
3FE00FC1FC003FE0
7FC00FC1FC003FE0
7FC00FC1FC001FE0
7FC01FC0FE001FE0
7F801F80FE001FE0
FF800F80FE001FE0
FF800F00FE001FE0
FF800600FF001FE0
FF800000FF001FE0
FF800000FF001FE0
FF800000FF001FE0
FF8003F8FF003FE0
FF800FFEFF003FE0
FF801FFFFF003FC0
FF803FC7FF003FC0
FF803FC3FF007FC0
FF807F81FF007F80
FF807F81FF00FF80
7F807F80FF00FF00
7FC07F80FF01FF00
7FC07F80FF03FE00
7FC07F81FF03FC00
3FC07F81FF07F800
3FE03F83FF1FF000
1FE03FC7FF7FE000
1FF01FFFFFFFC000
0FF00FFFFFFF8000
0FF803FCFFFE0000
07FC0000FFF80000
07FE00007FC00000
03FF000008000000
01FFC00000000000
00FFE00000000000
007FF00000000000
003FFC0000000000
001FFF0007000000
0007FFF0FF800000
0003FFFFFE000000
00007FFFF8000000
00001FFFE0000000
0000007800000000
ENDCHAR
STARTCHAR A
ENCODING 65
SWIDTH 877 0
DWIDTH 31 0
BBX 29 51 0 0
BITMAP
000FC000
001FE000
003FF000
003FF000
007FF000
007FF800
00FFF800
00FFFC00
00FFFC00
01FFFE00
01FFFE00
01FDFE00
01FDFF00
03FDFF00
03FDFF00
03F9FF00
07F9FF80
07F9FF80
07F8FF80
0FF8FF80
0FF0FFC0
0FF0FFC0
0FF0FFC0
1FF07FC0
1FF07FE0
1FE07FE0
1FE07FE0
3FE07FE0
3FE07FE0
3FE03FE0
3FC03FF0
3FC03FF0
7FC03FF0
7FC03FF0
7F801FF0
7F9F9FF0
7FFFFFF0
7FFFFFF0
7FFFFFF8
7F000FF8
7F000FF8
FF000FF8
FF000FF8
FE0007F8
FE0007F8
FE0007F8
FE0007F0
FE0007F0
FE0007F0
7C0003F0
3C0001E0
ENDCHAR
STARTCHAR B
ENCODING 66
SWIDTH 893 0
DWIDTH 31 0
BBX 28 53 1 0
BITMAP
03FFC000
0FFFF000
0FFFFC00
1FE1FE00
1FC0FF00
3FC07F80
3FC03F80
7FC03FC0
7FC01FC0
7FC01FE0
7FC00FE0
FFC00FE0
FFC00FF0
FFC00FF0
FFC00FF0
FFC00FF0
FFC00FF0
FFC00FF0
FFC00FF0
FFC00FF0
FF801FE0
FF801FE0
FF803FE0
FF803FC0
FF807FC0
FF80FF80
FF81FF00
FF83FF00
FF8FFE00
FFFFFC00
FFFFF000
FFFFE000
FFFFC000
FFBFE000
FF83F000
FF81F800
FF81FC00
FF80FC00
FF80FE00
FF80FE00
FF80FE00
7F80FE00
7F80FE00
7F80FE00
7F81FE00
7F81FE00
7F81FE00
3F83FC00
3F87FC00
3F8FF800
1FFFF000
1FFFE000
0F8F8000
ENDCHAR
STARTCHAR C
ENCODING 67
SWIDTH 1037 0
DWIDTH 36 0
BBX 34 52 0 -1
BITMAP
0001FF8000
0007FFC000
001FFFF000
003FF1F800
007FC0FC00
00FF807E00
01FF807E00
03FF007F00
07FE003F00
07FE003F80
0FFE003F80
0FFC003F80
1FFC003FC0
1FFC001FC0
3FF8001FC0
3FF8003FC0
3FF8003F80
7FF8001F00
7FF8000000
7FF0000000
7FF0000000
7FF0000000
7FF0000000
FFF0000000
FFF0000000
FFF0000000
FFF0000000
FFF0000000
FFF0000000
FFF0000000
FFF0000000
FFF0000000
7FF0000000
7FF0000000
7FF0000000
7FF0000000
7FF8001F80
3FF8003FC0
3FF8007FC0
3FF8007FC0
1FFC007F80
1FFC007F80
0FFC00FF80
0FFE00FF00
07FE00FF00
03FF01FE00
03FF81FE00
01FFE7FC00
007FFFF800
003FFFE000
000FFF8000
0000FC0000
ENDCHAR
STARTCHAR D
ENCODING 68
SWIDTH 1088 0
DWIDTH 38 0
BBX 35 51 1 0
BITMAP
0FC1FE0000
1FF7FF8000
3FFFFFC000
3FFFFFE000
7FFFFFF000
7FF0FFF800
7FE07FFC00
7FE01FFC00
7FE00FFE00
FFE00FFE00
FFE007FF00
FFE007FF00
FFE003FF80
FFE003FF80
FFE001FFC0
FFE001FFC0
FFC001FFC0
FFC001FFC0
FFC001FFE0
FFC000FFE0
FFC000FFE0
FFC000FFE0
FFC000FFE0
FFC000FFE0
FFC000FFE0
FFC000FFE0
FFC000FFE0
FFC001FFE0
FFC001FFE0
FFC001FFC0
FFC001FFC0
FFC001FFC0
FFC001FFC0
FFC003FF80
FFC003FF80
FFC003FF80
FFC003FF00
FFC007FF00
FFC007FE00
FFC00FFE00
FFC00FFC00
FFC01FFC00
7FC01FF800
7FC03FF000
7FC07FE000
7FC0FFC000
3FC1FF8000
3FEFFF0000
1FFFFC0000
0FFFF80000
07CFC00000
ENDCHAR
STARTCHAR E
ENCODING 69
SWIDTH 970 0
DWIDTH 34 0
BBX 33 52 0 0
BITMAP
01CFF00000
03FFFFF000
03FFFFFE00
07FFFFFF00
07FFFFFF80
0FFFFFFF80
0FF8FFFF00
0FF8007000
0FF8000000
1FF8000000
1FF8000000
1FF8000000
1FF8000000
3FF8000000
3FF8000000
3FF8000000
3FF0000000
3FF0000000
7FF0000000
7FF0000000
7FF0000000
7FF0000000
7FF0000000
7FF0000000
7FF0000000
7FF0000000
7FF0000000
7FF0000000
FFF0000000
FFF0000000
FFE0000000
FFE0000000
FFFFE00000
FFFFFC0000
FFFFFE0000
7FFFFE0000
7FFFF80000
7FE0000000
7FE0000000
7FE0000000
7FE0000000
7FE0000000
3FE0000000
3FE0000000
3FE0000000
3FE0000000
3FE03F8000
1FFFFFE000
1FFFFFE000
1FFFFFC000
07FFFF8000
003FF80000
ENDCHAR
STARTCHAR F
ENCODING 70
SWIDTH 1000 0
DWIDTH 35 0
BBX 31 52 1 -1
BITMAP
000F8000
07FFFFC0
0FFFFFFC
0FFFFFFE
1FFFFFFE
1FFFFFFE
1FE3FFFC
1FE001C0
3FE00000
3FE00000
3FE00000
3FE00000
7FE00000
7FE00000
7FE00000
7FE00000
7FE00000
7FE00000
FFE00000
FFE00000
FFE00000
FFE00000
FFE00000
FFE00000
FFE00000
FFE00000
FFE00000
FFE00000
FFC00000
FFC00000
FFC00000
FFC00000
FFFFC000
FFFFF800
FFFFFC00
FFFFF800
FFFFF000
FFC00000
FFC00000
FFC00000
FFC00000
FFC00000
7FC00000
7FC00000
7FC00000
7FC00000
7FC00000
3FC00000
3FC00000
3FC00000
1F800000
0F000000
ENDCHAR
STARTCHAR G
ENCODING 71
SWIDTH 1076 0
DWIDTH 38 0
BBX 36 52 0 -1
BITMAP
0000FFC000
0003FFE000
000FFFF800
001FF8FC00
003FE07E00
007FC07E00
00FF803F00
01FF003F80
03FF001F80
03FE001F80
07FE001FC0
0FFC001FC0
0FFC001FC0
1FF8001FE0
1FF8001FE0
3FF0001FE0
3FF0001FC0
3FF0000F80
7FE0000000
7FE0000000
7FE0000000
7FE0000000
7FE0000000
7FE0000000
FFE0000000
FFE0000000
FFE0000000
FFE0000000
FFE0000000
FFE0000000
FFE0000000
7FE03FC000
7FE07FFF00
7FE0FFFFC0
7FE07FFFE0
7FE03FFFE0
7FF007FFF0
3FF0007FE0
3FF0003FE0
1FF8003FE0
1FF8003FC0
1FFC007FC0
0FFC007FC0
07FE007F80
07FF007F80
03FF80FF00
01FFC1FF00
00FFF3FE00
003FFFFC00
001FFFF000
0007FFC000
00007E0000
ENDCHAR
STARTCHAR H
ENCODING 72
SWIDTH 1029 0
DWIDTH 36 0
BBX 32 52 1 -1
BITMAP
1F000000
1F8000F8
3FC001FC
3FC001FC
3FE001FC
3FE003FC
3FE003FE
3FE003FE
7FE003FE
7FE003FE
7FE003FE
7FE003FE
7FE003FE
7FE003FE
7FE003FE
FFE003FE
FFE003FF
FFE003FF
FFE003FF
FFE003FF
FFE003FF
FFE003FF
FFE003FF
FFE003FF
FFE003FF
FFE003FF
FFE003FF
FFE003FF
FFE003FF
FFE003FF
FFE003FF
FFFFFFFF
FFFFFFFF
FFFFFFFF
FFFFFFFF
7FFFFFFF
7FE003FE
7FE003FE
7FE003FE
7FE003FE
7FE003FE
7FE003FE
3FE003FE
3FE007FE
3FE007FE
1FE007FC
1FF007FC
1FF007FC
0FE007FC
07E007FC
01C007F8
00000040
ENDCHAR
STARTCHAR I
ENCODING 73
SWIDTH 427 0
DWIDTH 15 0
BBX 12 51 0 0
BITMAP
0F00
1FC0
3FE0
3FE0
3FE0
3FE0
3FE0
3FE0
3FF0
3FF0
3FF0
3FF0
3FF0
7FF0
7FF0
7FF0
7FF0
7FF0
7FF0
7FF0
7FF0
7FF0
7FF0
FFF0
FFF0
FFF0
FFF0
FFF0
FFF0
FFF0
FFF0
FFF0
FFF0
FFE0
FFE0
FFE0
7FE0
7FE0
7FE0
7FE0
7FE0
7FE0
7FC0
7FC0
7FC0
7FC0
7FC0
3F80
3F80
3F80
1F80
ENDCHAR
STARTCHAR J
ENCODING 74
SWIDTH 819 0
DWIDTH 29 0
BBX 25 51 1 0
BITMAP
00007C00
00007E00
0000FE00
0000FE00
0000FF00
0000FF00
0000FF00
0000FF00
0000FF00
0001FF80
0001FF80
0001FF80
0001FF80
0001FF80
0001FF80
0001FF80
0001FF80
0001FF80
0001FF80
0001FF80
0001FF80
0001FF80
0001FF80
0001FF80
0001FF80
0001FF80
0001FF80
0001FF80
0001FF80
0001FF80
0001FF80
0001FF80
0003FF80
0003FF00
0003FF00
0003FF00
0003FF00
0003FF00
7003FF00
FC03FE00
FC03FE00
FE03FE00
FE07FE00
FE07FC00
FE07FC00
7E0FF800
7E1FF800
3F3FF000
1FFFE000
0FFF8000
03FE0000
ENDCHAR
STARTCHAR K
ENCODING 75
SWIDTH 958 0
DWIDTH 34 0
BBX 31 52 1 -1
BITMAP
1F800080
3FC003F0
3FE003F8
7FE007F8
7FE007FC
7FE007FC
7FE007FC
7FE007FE
7FE007FE
7FE00FFE
7FE00FFE
7FE00FFE
FFE00FFE
FFE00FFE
FFE00FFC
FFE01FFC
FFE01FFC
FFE01FFC
FFE03FF8
FFC07FF8
FFC07FF0
FFC0FFE0
FFC1FFC0
FFC7FF80
FFDFFF00
FFFFFE00
FFFFFC00
FFFFF000
FFFFC000
FFFFF800
FFFFFE00
FFCFFF00
FFC1FF80
FF807FC0
FF803FE0
FF801FE0
FF801FF0
FF800FF0
FF800FF8
FF800FF8
FF800FF8
FF800FF8
FF800FF8
FF800FF8
FF800FF8
FF800FF8
FF000FF8
7F000FF8
7F000FF8
7F000FF8
3E000FF0
000007E0
ENDCHAR
STARTCHAR L
ENCODING 76
SWIDTH 728 0
DWIDTH 25 0
BBX 24 53 0 -1
BITMAP
070000
0FC000
1FE000
1FE000
1FE000
1FF000
3FF000
3FF000
3FF000
3FF000
3FF000
3FF000
7FE000
7FE000
7FE000
7FE000
7FE000
7FE000
7FE000
7FE000
7FE000
7FE000
FFE000
FFE000
FFE000
FFE000
FFE000
FFE000
FFE000
FFE000
FFE000
FFE000
FFE000
7FE000
7FE000
7FE000
7FE000
7FE000
7FE000
7FE000
7FE000
7FE000
7FE000
7FE000
7FE000
7FE000
7FE1E0
3FFFFF
3FFFFF
3FFFFF
3FFFFC
3FFF80
1FE000
ENDCHAR
STARTCHAR M
ENCODING 77
SWIDTH 1326 0
DWIDTH 46 0
BBX 44 54 0 -1
BITMAP
038000000000
0FE000000000
0FF000000FC0
0FF000001FE0
1FF800003FE0
1FF800007FE0
1FFC0000FFE0
1FFC0000FFE0
1FFC0001FFE0
3FFE0001FFE0
3FFE0003FFF0
3FFE0003FFF0
3FFF0007FFF0
3FFF0007FFF0
3FFF000FFFF0
7FFF800FFFF0
7FFF801FFFF0
7FFF801FFFF0
7FEFC01FFFF0
7FEFC03FFFF0
7FEFC03F7FF0
7FE7E07F7FF0
7FE7E07FFFF0
FFE7F0FEFFF0
FFE3F0FEFFF0
FFE3F1FCFFF0
FFE3F9FCFFF0
FFE3F9FCFFF0
FFE1FFF8FFF0
FFE1FFF8FFF0
FFE1FFF8FFF0
FFE0FFF0FFF0
FFE0FFF0FFF0
FFE0FFF0FFE0
FFE0FFE0FFE0
FFE07FE0FFE0
FFE07FC0FFE0
FFE03FC0FFE0
FFE01F80FFE0
FFE00000FFE0
FFE00000FFE0
7FE00000FFE0
7FE00000FFE0
7FE00000FFE0
7FE00000FFC0
7FE00000FFC0
7FE00000FFC0
7FE00000FFC0
7FE00000FFC0
7FE00000FFC0
3FE00000FFC0
3FC00000FF80
1F8000007F80
000000003F00
ENDCHAR
STARTCHAR N
ENCODING 78
SWIDTH 1084 0
DWIDTH 38 0
BBX 34 53 1 -1
BITMAP
0F80000C00
0FC0003F80
1FE0003F80
1FE0007F80
1FF0007F80
1FF0007F80
3FF0007F80
3FF8007FC0
3FF800FFC0
3FFC00FFC0
3FFC00FFC0
7FFE00FFC0
7FFE00FFC0
7FFE00FFC0
7FFF00FFC0
7FFF00FFC0
7FFF00FFC0
FFFF80FFC0
FFFF80FFC0
FFDFC0FFC0
FFCFC0FFC0
FFCFC0FFC0
FFCFE1FFC0
FFC7E1FFC0
FFC7F1FFC0
FFC3F1FFC0
FFC3F1FFC0
FFC3F9FFC0
FFC1F9FFC0
FFC1FDFFC0
FFC0FDFFC0
FFC0FFFFC0
FFC0FFFFC0
FFC07FFFC0
FFC07FFFC0
FFC07FFFC0
FFC03FFFC0
FFC03FFFC0
FFC03FFF80
FFC01FFF80
FFC01FFF80
FFC01FFF80
FFC00FFF80
FFC00FFF80
FFC007FF80
FFC007FF80
FFC007FF80
7FC003FF00
7FC003FF00
7F8003FF00
7F8001FF00
3F0000FE00
0000007C00
ENDCHAR
STARTCHAR O
ENCODING 79
SWIDTH 1187 0
DWIDTH 42 0
BBX 39 52 0 -1
BITMAP
0001FFE000
000FFFF800
003FFFFC00
007FFFFF00
00FFE1FF80
01FF80FF80
03FF007FC0
07FE003FE0
0FFC003FE0
0FFC003FF0
1FF8001FF0
1FF8001FF8
3FF0001FF8
3FF0000FF8
3FF0000FFC
7FE0000FFC
7FE0000FFC
7FE0000FFC
7FE00007FE
7FE00007FE
FFE00007FE
FFE00007FE
FFE00007FE
FFE00007FE
FFE00007FE
FFE00007FE
FFE00007FE
FFE00007FE
FFE00007FE
FFE00007FE
FFE00007FE
FFE00007FE
FFE00007FE
7FE0000FFE
7FE0000FFC
7FE0000FFC
7FE0000FFC
7FF0001FFC
3FF0001FF8
3FF0001FF8
3FF8003FF8
1FF8003FF0
1FF8007FF0
0FFC00FFE0
07FE00FFC0
07FE01FFC0
03FF03FF80
01FFFFFF00
007FFFFC00
003FFFF800
000FFFE000
0001FE0000
ENDCHAR
STARTCHAR P
ENCODING 80
SWIDTH 894 0
DWIDTH 31 0
BBX 29 54 0 -1
BITMAP
038FC000
0FFFF000
0FFFFC00
1FF9FE00
1FE07F00
1FE03F80
1FE03FC0
3FE01FE0
3FE00FE0
3FE00FF0
3FE00FF0
3FE007F0
7FE007F8
7FE007F8
7FE007F8
7FE007F8
7FE007F8
7FE007F8
7FE007F8
FFE007F8
FFE00FF8
FFE00FF0
FFE00FF0
FFC01FF0
FFC03FE0
FFC03FC0
FFC07FC0
FFC0FF80
FFE3FF00
FFFFFE00
FFFFFC00
FFFFF000
FFFFC000
FFFC0000
FFE00000
7FE00000
7FE00000
7FE00000
7FE00000
7FE00000
7FE00000
7FE00000
7FE00000
7FE00000
7FE00000
3FE00000
3FE00000
3FE00000
3FE00000
3FE00000
1FE00000
1FC00000
0FC00000
03000000
ENDCHAR
STARTCHAR Q
ENCODING 81
SWIDTH 1136 0
DWIDTH 40 0
BBX 39 53 -1 -2
BITMAP
00007FC000
0003FFF000
000FFFFC00
001FFFFE00
007FFBFF00
00FFC0FF80
00FF807FC0
01FF003FE0
03FE001FE0
07FE001FF0
07FC001FF0
0FFC000FF0
0FF8000FF8
1FF8000FF8
1FF0000FF8
3FF00007FC
3FF00007FC
3FF00007FC
7FF00007FE
7FE00007FE
7FE00007FE
7FE00003FE
7FE00003FE
7FE00003FE
7FE00003FE
FFE00003FE
7FE00003FE
7FE00003FE
7FE00003FE
7FE00003FE
7FE00003FE
7FE00007FE
7FE00007FE
7FE00007FE
3FE00007FC
3FF00F87FC
3FF01FEFFC
3FF01FFFF8
1FF00FFFF8
1FF80FFFF8
0FF807FFF0
0FF807FFF0
07FC03FFE0
07FC03FFE0
03FE01FFC0
03FE01FFC0
01FF01FFE0
00FFC7FFE0
007FFFFFF0
001FFFFFF0
000FFFFFF0
0001FF8FF0
00000003E0
ENDCHAR
STARTCHAR R
ENCODING 82
SWIDTH 946 0
DWIDTH 33 0
BBX 31 54 0 -1
BITMAP
07C7C000
0FFFF800
0FFFFE00
1FF8FF00
1FF07F80
1FF03FC0
1FF01FE0
1FE00FF0
3FE00FF0
3FE007F8
3FE007F8
3FE007FC
3FE007FC
7FE003FE
7FE003FE
7FE003FE
7FE003FE
7FE003FE
7FE007FE
7FE007FE
7FE007FC
FFE00FFC
FFE00FFC
FFE01FF8
FFE01FF0
FFE03FF0
FFE07FE0
FFE0FFC0
FFE3FF80
FFFFFF00
FFFFFC00
FFFFF800
FFFFC000
FFFFE000
FFEFF800
7FE3FC00
7FE3FC00
7FE1FE00
7FE0FF00
7FE0FF00
7FE07F80
7FE07FC0
7FE03FC0
7FE03FC0
7FE03FE0
7FE03FE0
3FE01FE0
3FE01FF0
3FE01FF0
3FE01FF0
1FC01FF0
1FC01FE0
0F801FE0
00000FC0
ENDCHAR
STARTCHAR S
ENCODING 83
SWIDTH 855 0
DWIDTH 30 0
BBX 28 52 0 -1
BITMAP
003FE000
00FFF800
01FFFC00
07FFFF00
07FFFF00
0FF87F80
1FF07FC0
1FF03FC0
3FE03FE0
3FE03FE0
3FE03FE0
3FE01FE0
7FE01FE0
7FC01FE0
7FC01FE0
7FC01FE0
3FE01FE0
3FE01FC0
3FE01FC0
3FF01FC0
1FF80F80
1FF80000
0FFC0000
0FFE0000
07FF0000
03FF8000
03FFC000
01FFE000
00FFF000
007FF800
003FFC00
001FFE00
001FFF00
000FFF80
0007FFC0
0003FFC0
1F01FFE0
7F80FFE0
7F80FFE0
FF807FE0
FF807FF0
FF807FF0
FF803FF0
7FC07FE0
7FC07FE0
7FC0FFE0
3FE1FFC0
1FFFFF80
0FFFFF00
07FFFE00
03FFFC00
007FE000
ENDCHAR
STARTCHAR T
ENCODING 84
SWIDTH 906 0
DWIDTH 32 0
BBX 30 52 1 -1
BITMAP
1FFFFFE0
7FFFFFFC
FFFFFFF8
FFFFFFF8
FFFFFFF0
1FFFFF00
007FC000
007FC000
00FFC000
00FFC000
00FFC000
00FFE000
00FFE000
00FFE000
00FFE000
00FFE000
00FFE000
00FFE000
00FFE000
00FFE000
00FFE000
00FFE000
00FFE000
00FFE000
00FFE000
00FFE000
00FFE000
00FFE000
00FFE000
00FFE000
00FFE000
00FFE000
00FFE000
00FFE000
00FFE000
00FFE000
00FFE000
00FFE000
00FFE000
00FFC000
00FFC000
00FFC000
00FFC000
00FFC000
00FFC000
007FC000
007FC000
007F8000
007F8000
003F8000
003F0000
000E0000
ENDCHAR
STARTCHAR U
ENCODING 85
SWIDTH 1000 0
DWIDTH 35 0
BBX 33 53 0 -1
BITMAP
01C0000000
07F0000000
07F0001E00
0FF0001F00
0FF0001F00
0FF0001F80
1FF0001F80
1FF0001F80
1FF0001F80
1FF0001F80
3FF0001F80
3FF0003F80
3FF0003F80
3FF0003F80
7FF0003F80
7FF0003F80
7FF0003F80
7FF0003F80
7FF0003F00
7FF0003F00
7FF0003F00
7FF0003F00
7FF0003F00
7FF0003F00
7FF0003F00
7FF0003F00
FFF0007F00
FFF0007F00
FFF0007F00
FFF0007F00
FFF0007F00
FFF0007F00
FFF0007E00
7FF0007E00
7FF0007E00
7FF0007E00
7FF000FE00
7FF000FE00
7FF000FC00
7FF000FC00
3FF000FC00
3FF801F800
3FF801F800
1FF803F000
1FF803F000
1FF807E000
0FFC0FC000
0FFC0FC000
07FE3F8000
03FFFF0000
01FFFC0000
007FF80000
000F800000
ENDCHAR
STARTCHAR V
ENCODING 86
SWIDTH 1053 0
DWIDTH 37 0
BBX 35 52 2 -1
BITMAP
3E000000C0
7F000003E0
7F000003E0
FF000007C0
FF000007C0
FF80000FC0
FF80000F80
FF80001F80
FF80001F80
FFC0001F00
FFC0003F00
FFC0003F00
FFC0003F00
FFC0007E00
FFE0007E00
FFE0007E00
FFE0007E00
7FE000FC00
7FE000FC00
7FF000FC00
7FF000F800
7FF001F800
7FF001F800
7FF001F800
3FF803F000
3FF803F000
3FF803F000
3FF803F000
3FF807E000
1FFC07E000
1FFC07E000
1FFC07C000
1FFC0FC000
1FFC0FC000
0FFE0FC000
0FFE1F8000
0FFE1F8000
07FE1F8000
07FE3F8000
07FF3F0000
07FF3F0000
03FF7F0000
03FF7E0000
01FFFE0000
01FFFE0000
01FFFE0000
00FFFC0000
00FFFC0000
007FFC0000
003FF80000
001FF00000
000FE00000
ENDCHAR
STARTCHAR W
ENCODING 87
SWIDTH 1468 0
DWIDTH 51 0
BBX 48 51 1 -1
BITMAP
3F000000007C
3F80000000FE
7F80000000FE
7F80000001FE
7F80000001FE
7FC0000001FF
7FC0000001FF
7FC0000001FF
7FC0000003FF
7FC0000003FF
FFC0000003FF
FFE0000003FF
FFE0000003FF
FFE0000007FF
FFE0000007FF
FFE0000007FF
7FE0000007FF
7FE0000007FF
7FF0000007FF
7FF003C00FFF
7FF007E00FFF
7FF007E00FFF
7FF007E00FFE
7FF00FF00FFE
7FF80FF01FFE
7FF80FF01FFE
7FF81FF01FFE
7FF81FF81FFE
3FF81FF81FFC
3FF83FF83FFC
3FF83FFC3FFC
3FFC3FFC3FFC
3FFC7EFC3FFC
3FFC7EFC3FF8
1FFC7E7E3FF8
1FFC7E7E7FF8
1FFCFE7E7FF8
1FFCFC7E7FF0
0FFEFC7F7FF0
0FFFFC3F7FF0
0FFFFC3F7FE0
07FFF83FFFE0
07FFF83FFFC0
03FFF81FFFC0
03FFF01FFF80
01FFF01FFF80
01FFE00FFF00
00FFE00FFE00
007FC007FC00
001FC007F800
00030001E000
ENDCHAR
STARTCHAR X
ENCODING 88
SWIDTH 1000 0
DWIDTH 35 0
BBX 32 52 2 -1
BITMAP
7C000038
FE00007C
FF0001FC
FF0003FC
FF8003FC
FF8007FC
FFC007FC
FFC00FF8
7FE00FF8
7FF01FF0
3FF01FF0
3FF83FE0
1FF83FE0
1FFC3FC0
0FFE7FC0
0FFEFF80
07FFFF80
03FFFF00
03FFFF00
01FFFE00
00FFFE00
00FFFC00
007FFC00
003FF800
003FF800
001FF000
001FF800
003FFC00
007FFC00
00FFFE00
00FFFF00
01FFFF00
03FFFF80
03FFFFC0
07FFFFC0
07FEFFE0
0FFEFFF0
0FFC7FF0
1FFC7FF0
1FF83FF8
3FF83FF8
3FF01FFC
7FF01FFC
7FF00FFE
FFE00FFE
FFE007FE
FFC007FF
FFC003FF
FF8003FF
FF8001FF
7F0000FF
3C00007F
ENDCHAR
STARTCHAR Y
ENCODING 89
SWIDTH 1021 0
DWIDTH 36 0
BBX 34 52 1 -1
BITMAP
3E00000000
7F00000FC0
7F80001FC0
7F80001FC0
FFC0003FC0
FFC0003FC0
FFC0007F80
FFE0007F80
FFE0007F80
7FF000FF80
7FF000FF00
7FF001FF00
7FF801FF00
7FF803FF00
3FFC03FE00
3FFC03FE00
1FFC07FC00
1FFE07FC00
0FFE07F800
0FFE0FF800
07FF0FF800
07FF1FF000
03FF1FF000
03FF9FE000
01FFBFE000
01FFFFC000
00FFFFC000
007FFF8000
007FFF8000
003FFF0000
003FFF0000
003FFF0000
001FFE0000
001FFE0000
001FFE0000
000FFC0000
000FFC0000
001FFC0000
001FFC0000
001FFC0000
001FFC0000
001FFE0000
001FFE0000
001FFE0000
001FFE0000
001FFE0000
001FFE0000
001FFC0000
001FFC0000
000FFC0000
000FF80000
0003F00000
ENDCHAR
STARTCHAR Z
ENCODING 90
SWIDTH 1017 0
DWIDTH 36 0
BBX 34 53 0 -2
BITMAP
003FFFE000
01FFFFFC00
03FFFFFF00
07FFFFFF80
03FF03FF80
01E000FFC0
0000007FC0
0000007FC0
0000007FC0
0000007FC0
000000FFC0
000001FF80
000003FF80
000007FF80
00000FFF00
00001FFF00
00003FFE00
00007FFC00
0000FFFC00
0000FFF800
0001FFF800
0003FFF000
0007FFE000
000FFFE000
001FFFC000
001FFF8000
003FFF0000
007FFF0000
00FFFE0000
00FFFC0000
01FFF80000
03FFF80000
03FFF00000
07FFE00000
07FFC00000
0FFFC00000
1FFF800000
1FFF000000
3FFE000000
3FFC000000
7FF8000000
7FF0000000
7FF0000000
FFE0000000
FFE0007000
FFFFC7FC00
FFFFFFFE00
FFFFFFFE00
7FFFFFFC00
7FFFFFFC00
3FFFFFF800
0FFFFFE000
01FFE00000
ENDCHAR
STARTCHAR bracketleft
ENCODING 91
SWIDTH 542 0
DWIDTH 19 0
BBX 19 59 -1 -5
BITMAP
07F000
1FFF80
1FFF80
3FFF80
3FE000
3FE000
3FE000
3FC000
3FC000
3FC000
3FC000
3FC000
7FC000
7FC000
7FC000
7FC000
7FC000
7FC000
7FC000
7FC000
7FC000
7FC000
7FC000
7F8000
7F8000
7F8000
7F8000
7F8000
7F8000
7F8000
7F8000
7F8000
7F8000
7F8000
7F8000
7F8000
FF8000
FF8000
FF8000
FF8000
FF8000
FF8000
FF8000
FF8000
FF8000
FF8000
FF8000
FF8000
7F8000
7F8000
7F8000
7F8000
7F8000
7FC000
7FFC00
7FFF00
3FFF00
1FFE00
07F000
ENDCHAR
STARTCHAR backslash
ENCODING 92
SWIDTH 765 0
DWIDTH 27 0
BBX 22 50 2 -2
BITMAP
FC0000
FE0000
FE0000
FF0000
FF0000
FF8000
FF8000
FFC000
FFC000
FFE000
7FE000
7FF000
7FF000
7FF000
3FF800
3FF800
3FF800
1FFC00
1FFC00
1FFC00
1FFE00
0FFE00
0FFE00
0FFE00
07FF00
07FF00
07FF00
03FF80
03FF80
03FF80
01FFC0
01FFC0
01FFC0
01FFE0
00FFE0
00FFE0
00FFF0
007FF0
007FF0
007FF8
003FF8
003FF8
003FFC
003FFC
001FFC
001FFC
000FFC
000FFC
0007FC
0003F8
ENDCHAR
STARTCHAR bracketright
ENCODING 93
SWIDTH 573 0
DWIDTH 20 0
BBX 17 59 0 -5
BITMAP
07F000
7FFC00
FFFE00
7FFE00
01FF00
01FF00
01FF00
01FF00
01FF00
01FF00
01FF00
00FF00
00FF00
00FF00
00FF00
00FF00
00FF00
00FF00
00FF80
00FF80
00FF80
00FF80
00FF80
00FF80
00FF80
00FF80
00FF80
00FF80
00FF80
00FF80
00FF80
00FF80
00FF80
00FF80
00FF80
00FF80
00FF80
00FF80
00FF80
00FF80
00FF80
00FF80
00FF80
00FF80
00FF80
00FF80
00FF80
00FF80
00FF80
00FF80
00FF80
00FF80
00FF80
00FF80
0FFF80
3FFF00
3FFF00
1FFE00
03F800
ENDCHAR
STARTCHAR asciicircum
ENCODING 94
SWIDTH 1000 0
DWIDTH 35 0
BBX 30 32 0 21
BITMAP
0003E000
0007F000
000FF000
001FF800
001FFC00
003FFC00
007FFE00
007FFE00
00FFFF00
00FFFF00
01FFFF00
01FFFF80
03FFFF80
03FE7FC0
07FE7FC0
0FFC3FE0
0FFC1FE0
1FF81FE0
1FF01FF0
3FF00FF0
3FE00FF8
7FE007F8
7FC007F8
FFC007FC
FFC003FC
FF8003FC
FF8003FC
FF0001FC
FF0001FC
7E0000FC
3C0000FC
00000030
ENDCHAR
STARTCHAR underscore
ENCODING 95
SWIDTH 866 0
DWIDTH 30 0
BBX 28 4 0 0
BITMAP
0003F000
3FFFFFF0
FFFFFFF0
3FFFFFF0
ENDCHAR
STARTCHAR grave
ENCODING 96
SWIDTH 542 0
DWIDTH 19 0
BBX 15 8 2 42
BITMAP
3C00
FF80
FFE0
7FF0
1FFC
0FFE
03FE
00FC
ENDCHAR
STARTCHAR a
ENCODING 97
SWIDTH 923 0
DWIDTH 32 0
BBX 30 45 0 1
BITMAP
001FF000
007FF800
00FFFE00
01FFFF00
03FFFF80
07FC7F80
07F87FC0
07F83FC0
0FF03FE0
0FF03FE0
0FF01FE0
0FE01FF0
0FE01FF0
0FE01FF0
0FC01FF8
0FC01FF8
03801FF8
00001FF8
00001FF8
00001FF8
00001FF8
01FE1FF8
07FF9FFC
0FFFFFFC
1FFFFFFC
3FF1FFFC
7FE07FFC
7FE07FFC
7FE03FFC
7FC01FFC
FFC01FFC
FFC00FFC
FFC01FFC
7FC01FFC
7FC03FFC
7FE03FFC
7FE07FFC
3FE0FFFC
3FFBFFF8
1FFFFFF8
0FFFEFF8
03FF8FF8
00780FF8
00000FF8
00000FF0
ENDCHAR
STARTCHAR b
ENCODING 98
SWIDTH 904 0
DWIDTH 32 0
BBX 30 48 0 0
BITMAP
007FC000
03FFF800
07FFFE00
0FF8FF80
1FF03FC0
1FE01FC0
3FE00FE0
3FC00FF0
7FC007F0
7FC007F8
7FC003F8
7FC003F8
FFC003F8
FFC003FC
FFC003FC
FFC003FC
FFC003FC
FFC003F8
FFC003F8
FFC007F8
FFC007F8
FFC00FF0
FFC00FF0
FFC01FE0
FFC03FC0
FFC07F80
FFC1FF00
FFCFFE00
FFFFF800
FFFFC000
FFFFF000
FFF7F800
FFC1FC00
FFC0FE00
FFC0FE00
FFC0FE00
FFC0FE00
FFC0FE00
7FC0FE00
7FE0FE00
7FE1FE00
7FE1FC00
3FE3FC00
3FE7F800
1FFFF000
1FFFE000
0FFF8000
007C0000
ENDCHAR
STARTCHAR c
ENCODING 99
SWIDTH 945 0
DWIDTH 33 0
BBX 31 47 0 1
BITMAP
0000F000
000FFF00
003FFFC0
007FEFE0
00FF87F0
01FF03F8
03FE03FC
07FE03FC
0FFC03FC
0FF803FE
1FF803FE
1FF003FE
3FF003FE
3FE003FE
7FE003FE
7FE007FE
7FE007FE
7FC007FE
FFC00FFC
FFC00FFC
FFC00FF8
FFC007F0
FFC000C0
FFC00000
FFC00000
FFC00000
FFC00000
FFC00000
FFC00000
FFC00000
7FE00000
7FE00000
7FE00000
7FE00000
3FE00000
3FF000F8
3FF001FC
1FF001FC
1FF801FC
0FF803FC
0FFC03FC
07FE07F8
03FF1FF0
01FFFFE0
00FFFF80
003FFE00
0007F000
ENDCHAR
STARTCHAR d
ENCODING 100
SWIDTH 1048 0
DWIDTH 37 0
BBX 34 47 0 1
BITMAP
003FF00000
01FFFE0000
03FFFF8000
07FFFFC000
07F81FF000
0FF007F000
0FF003F800
1FF001FC00
1FF001FE00
1FF000FE00
3FF000FF00
3FF0007F00
3FF0007F00
3FF0007F80
7FF0007F80
7FE0003F80
7FE0003F80
7FE0003FC0
7FE0003FC0
7FE0003FC0
7FE0003FC0
7FE0003FC0
7FE0003FC0
FFE0003FC0
FFE0003FC0
FFE0003FC0
FFE0003FC0
FFE0003FC0
FFE0003F80
FFE0007F80
FFE0007F80
FFE0007F80
FFE0007F00
FFE000FF00
7FE000FF00
7FE001FE00
7FE001FE00
7FE003FC00
7FE003F800
3FE007F800
3FE00FF000
3FE01FE000
1FE07FC000
0FF3FF0000
0FFFFE0000
07FFF80000
01FFC00000
ENDCHAR
STARTCHAR e
ENCODING 101
SWIDTH 959 0
DWIDTH 34 0
BBX 31 47 0 1
BITMAP
0000F000
000FFF00
001FFFC0
007FEFE0
00FF87F0
01FF03F8
03FE03FC
07FC03FC
0FFC03FE
0FF803FE
1FF803FE
1FF003FE
3FF003FE
3FE003FE
3FE003FE
7FE003FE
7FE007FE
7FE007FE
7FC00FFC
FFC01FFC
FFC07FF8
FFFFFFF0
FFFFFFE0
FFFFFF80
FFFFFF00
FFFFF800
FFC00000
FFC00000
FFE00000
7FE00000
7FE00000
7FE00000
7FE00000
7FF00000
3FF00020
3FF000FC
3FF800FE
1FF801FE
1FF801FE
0FFC01FE
07FE03FC
07FF07F8
03FF9FF0
01FFFFE0
007FFF80
001FFE00
0007F000
ENDCHAR
STARTCHAR f
ENCODING 102
SWIDTH 882 0
DWIDTH 31 0
BBX 31 44 0 3
BITMAP
03FFFFF0
07FFFFFC
0FFFFFFE
0FFFFFFC
1FFFFFF8
1FF7FFC0
3FF00000
3FF00000
3FF00000
7FF00000
7FF00000
7FF00000
7FF00000
FFF00000
FFF00000
FFF00000
FFF00000
FFF00000
FFE00000
FFE00000
FFE00000
FFE00000
FFFFE000
FFFFF800
FFFFFC00
FFFFFC00
FFFFF800
FFEE0000
FFE00000
FFE00000
FFE00000
FFE00000
FFE00000
FFE00000
FFE00000
7FE00000
7FE00000
7FE00000
7FE00000
7FE00000
7FE00000
7FE00000
3FE00000
1FC00000
ENDCHAR
STARTCHAR g
ENCODING 103
SWIDTH 1048 0
DWIDTH 37 0
BBX 34 46 1 1
BITMAP
0007801E00
007FF87F00
01FFFE7F80
07FFBFFF80
0FFC0FFF80
1FF803FF80
1FF001FF80
3FF001FF80
7FE001FF80
7FE001FF80
7FC001FF80
FFC003FF80
FFC003FF80
FFC007FF80
FFC007FF80
FFC00FFF80
FFC01FFFC0
FFC01FFFC0
FFC03FFFC0
FFC07FFFC0
7FC0FFFFC0
7FE1FFFFC0
7FFFFDFFC0
3FFFF9FFC0
1FFFF1FFC0
0FFFC1FFC0
03FF01FFC0
000001FF80
000001FF80
000001FF80
000001FF80
000003FF80
1C0003FF80
7F0003FF00
7F8003FF00
7FC007FF00
7FC007FE00
3FC007FE00
3FE00FFC00
1FE01FF800
1FF03FF000
0FFEFFF000
03FFFFC000
01FFFF8000
003FFE0000
0003F00000
ENDCHAR
STARTCHAR h
ENCODING 104
SWIDTH 1063 0
DWIDTH 37 0
BBX 35 45 0 2
BITMAP
03E0007E00
07E0007F00
0FF000FF80
1FF000FF80
1FF000FF80
1FF000FFC0
3FF000FFC0
3FF001FFC0
3FF001FFC0
3FF001FFC0
3FF001FFC0
7FF001FFC0
7FF001FFE0
7FE001FFE0
7FE001FFE0
7FE001FFE0
7FE001FFE0
7FE001FFE0
7FE001FFE0
FFE001FFE0
FFE001FFE0
FFE001FFE0
FFE001FFE0
FFE001FFE0
FFE001FFE0
FFE001FFE0
FFE001FFE0
FFE001FFE0
FFFFFFFFE0
FFFFFFFFE0
FFFFFFFFE0
FFFFFFFFE0
FFE001FFE0
FFE001FFC0
FFE001FFC0
FFE001FFC0
FFE001FFC0
7FC001FFC0
7FC001FFC0
7FC001FF80
7FC001FF80
7F8001FF00
7F8001FF00
1F0001FF00
0000007C00
ENDCHAR
STARTCHAR i
ENCODING 105
SWIDTH 439 0
DWIDTH 15 0
BBX 13 43 0 2
BITMAP
0FC0
1FE0
1FE0
3FE0
3FE0
3FE0
3FE0
3FE0
1FC0
0000
0000
0000
0FC0
0FE0
1FE0
3FE0
3FF0
7FF0
7FF0
7FF0
FFF0
FFF8
FFF8
FFF8
FFF8
FFF8
FFF8
FFF8
FFF8
FFF8
FFF8
FFF8
FFF8
FFF8
FFF8
FFF8
FFF0
FFF0
FFF0
7FF0
7FE0
3FE0
1FC0
ENDCHAR
STARTCHAR j
ENCODING 106
SWIDTH 745 0
DWIDTH 26 0
BBX 26 46 -2 0
BITMAP
00003C00
0000FE00
0000FF00
0001FF00
0001FF80
0001FF80
0001FF80
0001FF80
0001FF80
0001FF80
0001FF80
0001FF80
0001FFC0
0001FFC0
0001FFC0
0001FFC0
0001FFC0
0001FFC0
0001FFC0
0001FFC0
0001FFC0
0001FFC0
0001FFC0
0001FFC0
0001FFC0
0001FFC0
0001FF80
0001FF80
0001FF80
0003FF80
0003FF80
0003FF80
0003FF80
0003FF00
0007FF00
0007FF00
0007FE00
000FFE00
000FFC00
001FF800
003FF800
7CFFF000
FFFFE000
FFFF8000
7FFE0000
0FF00000
ENDCHAR
STARTCHAR k
ENCODING 107
SWIDTH 948 0
DWIDTH 33 0
BBX 33 47 0 0
BITMAP
0180000000
07E0018000
0FE003E000
0FE003F000
1FE003F800
1FE003F800
1FE003F800
1FE003F800
1FE003FC00
3FE007FC00
3FE007FC00
3FE007FC00
3FE00FFC00
3FE00FFC00
3FE00FFC00
7FE01FFC00
7FE01FF800
7FE03FF800
7FE03FF800
7FE07FF000
7FE0FFE000
7FE1FFE000
7FE7FFC000
FFFFFF8000
FFFFFE0000
FFFFF80000
FFFFFC0000
FFFFFF0000
FFE1FFC000
FFE07FE000
FFE03FE000
FFC03FF000
FFC01FF800
FFC00FF800
FFC007FC00
FFE007FE00
7FE003FE00
7FE003FF00
7FE003FF00
7FE001FF00
7FE001FF00
3FE001FF80
3FE001FF80
3FE001FF80
3FC001FF80
1F8000FF00
0000007E00
ENDCHAR
STARTCHAR l
ENCODING 108
SWIDTH 672 0
DWIDTH 24 0
BBX 23 46 0 0
BITMAP
03C000
07E000
0FE000
0FE000
1FE000
1FE000
1FE000
1FE000
3FE000
3FE000
3FE000
3FE000
7FE000
7FE000
7FE000
7FE000
7FE000
7FE000
7FE000
FFE000
FFE000
FFE000
FFE000
FFE000
FFE000
FFE000
FFF000
FFF000
FFF000
FFF000
FFF000
FFF000
7FF000
7FF000
7FF000
7FF000
7FF000
7FF000
3FF000
3FFFF8
3FFFFC
1FFFFE
1FFFFE
0FFFFC
07FFF8
01FFC0
ENDCHAR
STARTCHAR m
ENCODING 109
SWIDTH 1672 0
DWIDTH 59 0
BBX 55 47 1 0
BITMAP
07C00000000000
0FC01FE000FC00
0FC07FF003FF00
1FE0FFF807FF80
1FE1FBFC0FFFC0
1FE3F1FE1F9FE0
3FE3E1FE3F1FE0
3FE7E1FE3F1FF0
3FE7C1FF7E1FF0
7FEFC1FF7C1FF8
7FEF81FFFC1FF8
7FFF81FFFC0FF8
7FFF81FFF80FFC
FFFF81FFF80FFC
FFFF01FFF80FFC
FFFF01FFF00FFC
FFFF01FFF00FFC
FFFE01FFF00FFC
FFFE01FFF00FFE
FFFE00FFE00FFE
FFFE00FFE00FFE
FFFE00FFE00FFE
FFFC00FFE00FFE
FFFC00FFE00FFE
FFFC00FFC00FFE
FFFC00FFC00FFE
FFFC00FFC00FFE
FFF800FFC00FFE
FFF801FFC00FFE
FFF801FFC00FFE
FFF801FF800FFE
FFF801FF800FFE
FFF801FF800FFE
FFF801FF801FFE
FFF001FF801FFE
FFF001FF801FFE
7FF001FF801FFE
7FF003FF801FFC
7FF003FF803FFC
7FF003FF803FFC
3FF003FF803FFC
3FF003FF803FFC
1FF003FF003FF8
1FF003FF001FF8
0FF001FF001FF0
03E0007E000FE0
00000008000100
ENDCHAR
STARTCHAR n
ENCODING 110
SWIDTH 1078 0
DWIDTH 38 0
BBX 35 47 0 0
BITMAP
07C0000000
07E00FC000
0FE03FF000
0FE07FF800
1FE0FFFC00
1FE1F7FE00
3FE3C3FF00
3FE381FF80
3FE701FF80
7FE701FFC0
7FEE01FFC0
7FEE01FFC0
7FFC01FFE0
7FFC01FFE0
7FFC01FFE0
FFF801FFE0
FFF801FFE0
FFF801FFE0
FFF801FFE0
FFF801FFE0
FFF801FFE0
FFF001FFE0
FFF001FFE0
FFF003FFE0
FFF003FFE0
FFF003FFE0
FFF003FFE0
FFF003FFE0
FFF003FFE0
7FF003FFE0
7FF003FFE0
7FF007FFE0
7FF007FFE0
7FF007FFE0
7FF007FFC0
7FF007FFC0
7FF007FFC0
7FF007FFC0
3FF007FF80
3FF00FFF80
3FF00FFF80
3FF00FFF00
3FF00FFF00
1FF007FF00
0FE003FE00
07E001FC00
0000003800
ENDCHAR
STARTCHAR o
ENCODING 111
SWIDTH 1096 0
DWIDTH 38 0
BBX 36 45 0 0
BITMAP
0001FF8000
000FFFE000
001FFFF000
007FFFF800
00FFE1FC00
01FFC0FE00
03FF807F00
07FF007F00
07FE003F80
0FFC003F80
0FFC001FC0
1FF8001FC0
1FF8001FE0
3FF8000FE0
3FF0000FE0
7FF0000FE0
7FF0000FF0
7FE0000FF0
7FE00007F0
FFE00007F0
FFE00007F0
FFE00007F0
FFE00007F0
FFC00007F0
FFC00007F0
FFC00007F0
FFC00007F0
FFC00007F0
FFC00007F0
FFE0000FF0
FFE0000FF0
7FE0000FE0
7FE0000FE0
7FE0001FE0
3FF0001FC0
3FF0003FC0
1FF8003F80
1FFC007F80
0FFC007F00
07FE01FE00
03FF83FC00
01FFFFF800
007FFFE000
000FFF8000
0000600000
ENDCHAR
STARTCHAR p
ENCODING 112
SWIDTH 1000 0
DWIDTH 35 0
BBX 33 47 0 1
BITMAP
01FF800000
0FFFFC0000
1FFFFF0000
1FFFFFC000
1FE0FFE000
1FE01FF000
3FE00FF800
3FC007FC00
3FC003FC00
3FC003FE00
7FC003FE00
7FC001FF00
7FC001FF00
7FC001FF00
7FC001FF00
7FC001FF80
FFC001FF80
FFC001FF80
FFC001FF80
FFC001FF00
FFC003FF00
FFC003FF00
FFC007FE00
FFC007FE00
FFC00FFC00
FFC03FFC00
FFC3FFF800
FFFFFFF000
FFFFFFC000
FFFFFF8000
FFFFFC0000
FFC7800000
FFC0000000
FFC0000000
FFC0000000
FFC0000000
FFC0000000
FFC0000000
7FC0000000
7FC0000000
7FC0000000
7FC0000000
7FC0000000
7FC0000000
3FC0000000
1FC0000000
0300000000
ENDCHAR
STARTCHAR q
ENCODING 113
SWIDTH 1144 0
DWIDTH 40 0
BBX 38 48 0 -2
BITMAP
00003F8000
0001FFF000
0007FFF800
000FFFFE00
003FFFFE00
007FF87F00
00FFE03F80
01FFC01FC0
01FF800FC0
03FF000FE0
03FF0007E0
07FE0007F0
07FE0003F0
0FFC0003F0
1FFC0003F8
1FF80001F8
3FF80001F8
3FF80001F8
3FF00001FC
7FF00001FC
7FF00000FC
7FF00000FC
7FE00000FC
FFE00000FC
FFE00000FC
FFE00000FC
FFE00000FC
FFE00000FC
FFE00000FC
7FE00001FC
7FE00001F8
7FE00001F8
7FF00001F8
3FF00003F8
3FF01F83F0
1FF81FC7F0
1FF81FE7E0
0FFC1FFFE0
07FE0FFFC0
03FF07FF80
01FF87FF00
00FFFBFF00
003FFFFF80
000FFFFFC0
0001FFFFE0
0000003FF0
0000001FE0
0000000780
ENDCHAR
STARTCHAR r
ENCODING 114
SWIDTH 1000 0
DWIDTH 35 0
BBX 33 47 0 0
BITMAP
00FFC00000
0FFFFC0000
0FFFFF0000
0FFFFFC000
1FE0FFE000
1FE01FF000
1FE00FF800
3FE007FC00
3FE003FE00
3FE003FE00
3FE001FF00
7FE001FF00
7FE001FF00
7FE000FF80
7FE000FF80
7FE000FF80
7FE000FF80
7FE000FF80
7FE000FF80
7FE001FF80
FFE001FF80
FFE003FF00
FFE003FF00
FFE007FE00
FFE00FFE00
FFE03FFC00
FFE1FFF800
FFFFFFF000
FFFFFFE000
FFFFFF8000
FFFFFF8000
FFE7FFE000
FFE00FF000
FFE007F800
FFE003FC00
7FE003FE00
7FE001FE00
7FE001FF00
7FE000FF00
7FE000FF00
7FE000FF80
3FE000FF80
3FE000FF80
3FE000FF80
3FE000FF80
1FC000FF00
0300007F00
ENDCHAR
STARTCHAR s
ENCODING 115
SWIDTH 860 0
DWIDTH 30 0
BBX 27 47 1 0
BITMAP
007FF000
01FFFC00
07FFFF00
0FFFFF80
1FFC7FC0
3FF03FC0
3FE03FE0
7FC01FE0
7FC01FE0
FF801FE0
FF801FE0
FF801FE0
FF801FE0
FFC01FE0
FFC01FC0
FFE01FC0
7FF01F80
7FF80600
3FFC0000
3FFE0000
1FFF0000
0FFF8000
07FFE000
01FFF000
00FFFC00
007FFE00
003FFF00
000FFF80
0007FF80
1F83FFC0
7FC1FFC0
7FC0FFE0
FF80FFE0
FF807FE0
FF807FE0
FF807FE0
FF807FE0
FF807FE0
FF807FE0
FFC07FC0
7FE0FFC0
7FFFFFC0
3FFFFF80
1FFFFF00
07FFFC00
01FFF000
000E0000
ENDCHAR
STARTCHAR t
ENCODING 116
SWIDTH 790 0
DWIDTH 28 0
BBX 27 45 0 1
BITMAP
0001FFE0
01FFFFE0
3FFFFFE0
FFFFFF80
FFFFF800
7FFFC000
003FC000
003FC000
007FC000
007FC000
007FC000
007FC000
007FE000
007FE000
007FE000
007FE000
007FE000
007FE000
007FE000
007FE000
007FE000
007FE000
00FFE000
00FFE000
00FFF000
00FFF000
00FFF000
00FFF000
00FFF000
00FFF000
00FFF000
00FFF000
00FFF000
00FFE000
00FFE000
00FFE000
00FFE000
00FFE000
00FFE000
00FFE000
00FFC000
00FFC000
00FFC000
007FC000
003F8000
ENDCHAR
STARTCHAR u
ENCODING 117
SWIDTH 1085 0
DWIDTH 38 0
BBX 36 47 0 1
BITMAP
0000001C00
07C0007F00
0FC0007F80
1FE000FF80
1FE000FFC0
3FE000FFC0
3FE001FFC0
7FE001FFE0
7FE001FFE0
7FE001FFE0
7FE001FFE0
7FE001FFE0
7FE001FFE0
FFE001FFE0
FFE001FFE0
FFE001FFF0
FFE001FFF0
FFE001FFF0
FFE001FFF0
FFE001FFF0
FFE001FFF0
FFE001FFF0
FFE001FFF0
FFE001FFF0
FFE001FFF0
FFE003FFF0
FFE003FFF0
FFE003FFF0
FFE003FFF0
FFE003FFF0
FFE003FFF0
FFE003FFF0
7FE007FFF0
7FE007FFF0
7FE007FFF0
7FF00FFFF0
7FF00FFFE0
3FF01FFFE0
3FF01FFFE0
3FF03E7FE0
1FF87E7FE0
1FF8FC7FE0
0FFFFC3FC0
0FFFF83FC0
07FFF00F80
01FFC00000
003E000000
ENDCHAR
STARTCHAR v
ENCODING 118
SWIDTH 1063 0
DWIDTH 37 0
BBX 36 46 0 0
BITMAP
7F000007C0
7F000007E0
7F800007E0
7F800007E0
7F800007E0
FF800007F0
FFC0000FF0
FFC0000FF0
FFC0000FF0
FFC0000FF0
7FE0000FE0
7FE0000FE0
7FE0000FE0
7FE0000FE0
7FE0000FE0
7FF0000FE0
7FF0000FE0
7FF0000FE0
3FF0000FC0
3FF8001FC0
3FF8001FC0
3FF8001FC0
3FF8001FC0
3FF8001FC0
3FFC001FC0
1FFC003F80
1FFC003F80
1FFC003F80
1FFE003F80
1FFE007F00
0FFE007F00
0FFE007F00
0FFE00FE00
0FFF00FE00
07FF00FE00
07FF01FC00
07FF01FC00
03FF83F800
03FF83F800
01FF87F000
00FFCFE000
007FFFC000
003FFF8000
001FFF0000
000FFC0000
0003F00000
ENDCHAR
STARTCHAR w
ENCODING 119
SWIDTH 1583 0
DWIDTH 55 0
BBX 52 46 1 0
BITMAP
1E000000001F00
3F000000001F80
7F800000001F80
7F800000001FC0
FF800000001FC0
FF800000001FE0
FF800000001FE0
FF800000001FE0
FFC00000001FE0
FFC00000001FF0
FFC00000001FF0
FFC00000001FF0
FFC00000001FF0
FFE00000001FF0
FFE00000001FF0
FFE00000003FF0
FFE00000003FF0
FFE00000003FF0
7FF001F0003FF0
7FF003F8003FF0
7FF007F8003FE0
7FF007F8003FE0
7FF007FC003FE0
3FF807FC003FE0
3FF807FC003FE0
3FF807FC007FE0
3FF807FE007FC0
1FF807FE007FC0
1FF807FE007FC0
1FFC07FE00FFC0
0FFC07FE00FF80
0FFC07FE00FF80
0FFC07FE00FF00
07FC07FE00FF00
07FE07FF01FF00
07FE0FFF01FE00
03FE0FFF01FC00
03FE0FFF01FC00
03FF1FFF03F800
01FF1FFF83F000
00FFFEFF87F000
00FFFCFFCFE000
003FF07FFFC000
000FC03FFF0000
0000001FFE0000
00000007F80000
ENDCHAR
STARTCHAR x
ENCODING 120
SWIDTH 1000 0
DWIDTH 35 0
BBX 35 44 -1 1
BITMAP
0000000100
0000000FC0
1E00001FE0
1F00003FC0
1FC0007FC0
1FE000FFC0
1FF001FF80
0FF003FF80
0FF803FF00
07FC07FE00
07FE0FFE00
03FE0FFC00
01FF1FF800
01FFBFF800
00FFBFF000
00FFFFE000
007FFFE000
003FFFC000
003FFF8000
001FFF8000
001FFF0000
000FFE0000
000FFE0000
000FFE0000
001FFE0000
001FFF0000
003FFF8000
007FFF8000
007FFFC000
00FFFFE000
01FFFFE000
01FFFFF000
03FF3FF000
03FF1FF800
07FE1FFC00
0FFE0FFC00
0FFC0FFE00
1FF807FE00
3FF807FF00
3FF003FF00
7FF001FF80
7FE001FF80
FFC000FF00
3F80003E00
ENDCHAR
STARTCHAR y
ENCODING 121
SWIDTH 1114 0
DWIDTH 39 0
BBX 36 47 1 0
BITMAP
07E0000000
0FF0003F00
0FF0007F00
1FF0007F80
1FF000FF80
3FF000FF80
3FF000FFC0
7FF0007FC0
7FF0007FE0
7FF0007FE0
FFF0007FE0
FFF0007FE0
FFF0007FE0
FFF0007FF0
FFF000FFF0
FFF000FFF0
FFF000FFF0
FFF000FFF0
FFF000FFF0
FFF000FFF0
FFF001FFF0
FFF001FFF0
7FF003FFF0
7FF003FFF0
3FF807FFF0
3FF807FFF0
1FF80FFFF0
1FFC1FFFE0
0FFE7FFFE0
07FFFFFFE0
03FFFCFFE0
00FFF8FFE0
001FC0FFE0
000000FFC0
070001FFC0
1FC001FFC0
1FE001FF80
1FE001FF80
1FF003FF00
1FF003FF00
0FF807FE00
0FFC07FC00
07FE1FF800
03FFFFF000
00FFFFE000
003FFF8000
0007FE0000
ENDCHAR
STARTCHAR z
ENCODING 122
SWIDTH 867 0
DWIDTH 30 0
BBX 28 46 0 -1
BITMAP
1FFFC000
7FFFFF00
7FFFFFC0
7FFFFFE0
1FFFFFF0
003FFFF0
0000FFF0
00003FF0
00003FF0
00007FF0
0000FFE0
0000FFE0
0001FFE0
0001FFE0
0003FFC0
0007FFC0
0007FF80
000FFF80
001FFF00
001FFF00
003FFE00
007FFE00
007FFC00
00FFFC00
00FFF800
01FFF800
03FFF000
03FFF000
07FFE000
07FFE000
0FFFC000
0FFF8000
1FFF8000
1FFF0000
3FFE0000
3FFC0000
7FF80000
7FF00000
7FE00000
FFFFF000
FFFFFFC0
7FFFFFE0
7FFFFFF0
3FFFFFF0
0FFFFFE0
003FFF80
ENDCHAR
STARTCHAR braceleft
ENCODING 123
SWIDTH 783 0
DWIDTH 27 0
BBX 24 59 0 -5
BITMAP
0000FF
0007FF
001FF8
003FE0
007FC0
00FF80
01FF80
01FF00
03FF00
03FF00
03FE00
03FE00
07FE00
07FE00
07FE00
07FE00
07FE00
07FE00
07FE00
07FE00
07FE00
07FE00
07FC00
0FFC00
0FFC00
0FFC00
1FF800
3FF000
7FF000
FFE000
7FF000
3FF800
1FF800
0FFC00
0FFC00
0FFC00
07FC00
07FE00
07FE00
07FE00
07FE00
07FE00
07FE00
07FE00
07FE00
07FE00
07FE00
03FE00
03FE00
03FF00
03FF00
01FF00
01FF80
00FF80
007FC0
003FE0
001FF8
0007FF
0000FF
ENDCHAR
STARTCHAR bar
ENCODING 124
SWIDTH 354 0
DWIDTH 12 0
BBX 9 57 1 -4
BITMAP
3E00
7F00
7F00
7F00
FF00
FF00
FF80
FF80
FF80
FF80
FF80
FF80
FF80
FF80
FF80
FF80
FF80
FF80
FF80
FF80
FF80
FF80
FF80
FF80
FF80
FF80
FF80
FF80
FF80
FF00
FF00
FF00
FF00
FF00
FF00
7F00
7F00
7F00
7F00
7F00
7F00
7F00
7F00
7F00
7F00
7F00
7F00
7F00
3F00
3F00
3F00
3E00
3E00
3E00
3E00
1C00
1800
ENDCHAR
STARTCHAR braceright
ENCODING 125
SWIDTH 748 0
DWIDTH 26 0
BBX 24 59 0 -5
BITMAP
7F8000
FFF000
0FF800
07FE00
03FF00
01FF00
00FF80
00FFC0
007FC0
007FC0
007FE0
007FE0
007FE0
003FE0
003FE0
003FE0
003FE0
003FE0
003FE0
003FF0
003FF0
003FF0
003FF0
003FF0
001FF0
001FF8
001FF8
000FFC
0007FF
0003FF
0007FE
000FFC
001FF8
001FF8
003FF0
003FF0
003FF0
003FF0
003FE0
003FE0
003FE0
003FE0
003FE0
003FE0
003FE0
003FE0
007FE0
007FE0
007FE0
007FC0
007FC0
00FFC0
00FF80
01FF00
01FF00
03FE00
0FF800
7FF000
7F8000
ENDCHAR
STARTCHAR asciitilde
ENCODING 126
SWIDTH 849 0
DWIDTH 30 0
BBX 26 9 1 14
BITMAP
03E00000
1FFC0780
7FFF1FC0
FFFF9FC0
FE7FFFC0
FC3FFFC0
F81FFF80
F007FE00
0001F000
ENDCHAR
STARTCHAR space.dup2
ENCODING 160
SWIDTH 400 0
DWIDTH 14 0
BBX 1 1 0 0
BITMAP
00
ENDCHAR
STARTCHAR exclamdown
ENCODING 161
SWIDTH 455 0
DWIDTH 16 0
BBX 12 50 1 0
BITMAP
1E00
7FC0
FFE0
FFE0
FFE0
FFE0
FFC0
FFC0
FFC0
FFC0
7F80
3F00
0000
0000
0000
3FC0
7FE0
FFE0
FFF0
FFF0
FFF0
FFF0
FFF0
FFF0
FFF0
FFF0
FFF0
FFF0
FFF0
FFF0
FFF0
FFF0
FFF0
FFF0
FFF0
FFF0
7FF0
7FF0
7FF0
7FF0
7FF0
7FF0
7FF0
7FF0
7FF0
7FF0
3FE0
3FE0
3FE0
1F80
ENDCHAR
STARTCHAR cent
ENCODING 162
SWIDTH 1000 0
DWIDTH 35 0
BBX 32 57 0 -5
BITMAP
0000F800
0001FC00
0001FC00
0001FC00
0001FC00
0001FC00
0003FC00
000FFF00
003FFFC0
00FF8FE0
01FF07F0
03FE07F8
07FC07F8
07FC07FC
0FF807FC
1FF007FC
1FF007FC
3FF007FE
3FE007FE
3FE007FE
7FE007FE
7FE007FC
7FC007FC
7FC00FFC
FFC00FFC
FFC00FF8
FFC00FF0
FFC003E0
FFC00000
FFC00000
FFC00000
FFC00000
FFC00000
FFC00000
FFE00000
7FE00000
7FE00000
7FE00000
7FF00000
3FF00000
3FF0007C
1FF800FE
1FF800FF
1FFC00FF
0FFC00FE
07FE01FE
07FE03FC
03FF07F8
01FFFFF0
00FFFFE0
007FFF80
001FFE00
0003F800
0001F800
0003F800
0001F800
0000E000
ENDCHAR
STARTCHAR sterling
ENCODING 163
SWIDTH 1000 0
DWIDTH 35 0
BBX 33 52 0 -1
BITMAP
000FF80000
003FFF0000
007FFFC000
01FFFFC000
03FF9FE000
03FF07E000
07FE000000
0FFC000000
0FF8000000
0FF8000000
1FF0000000
1FF0000000
1FF0000000
1FF0000000
3FF0000000
3FF0000000
3FF0000000
3FF0000000
1FF0000000
1FF0000000
1FF0000000
1FF0000000
1FF0000000
1FFF000000
3FFFFF0000
3FFFFF0000
1FFFFE0000
07FC000000
07FC000000
07FE000000
03FE000000
03FE000000
03FF000000
01FF000000
01FF000000
01FF000000
01FF000000
01FF000000
01FF000000
01FF000000
01FF000000
01FF000000
03FE000000
03FE000000
07FE001F00
1FFC003F80
3FF8007F00
7FFFFFFF00
FFFFFFFE00
FFFFFFFE00
7FFFFFF800
007FFFC000
ENDCHAR
STARTCHAR currency
ENCODING 164
SWIDTH 809 0
DWIDTH 28 0
BBX 23 21 1 8
BITMAP
00003E
00007E
FDFFFE
FFFFFC
7FFFFC
7FFFF8
3FC3F8
7F81F8
7F81FC
7F81FC
7F81FC
7F81FC
7F81FC
7FC3F8
3FE7F0
3FFFF0
1FFFF8
7FFFFC
7FFDFE
7E007C
180000
ENDCHAR
STARTCHAR yen
ENCODING 165
SWIDTH 1107 0
DWIDTH 39 0
BBX 35 53 0 -1
BITMAP
0F00000000
3F800007C0
3F80000FE0
7FC0000FE0
7FC0001FC0
7FE0001FC0
7FE0003FC0
7FF0003FC0
7FF0003FC0
7FF0007FC0
7FF8007F80
3FF800FF80
3FF800FF80
3FFC01FF00
3FFC01FF00
1FFE01FF00
1FFE03FE00
0FFE03FE00
3FFF03FC00
7FFF07FFE0
FFFF07FFE0
FFFF8FFFE0
7FFF8FFFC0
3FFFCFFF00
03FFDFF000
00FFDFE000
007FFFE000
007FFFC000
003FFFC000
07FFFFF000
1FFFFFFFC0
3FFFFFFFE0
3FFFFFFFE0
3FFFFFFFC0
1FFFFFFF80
07FFFFF800
000FFE0000
000FFE0000
000FFE0000
000FFE0000
000FFE0000
000FFE0000
000FFE0000
000FFE0000
000FFE0000
000FFE0000
000FFE0000
000FFE0000
000FFE0000
000FFE0000
0007FC0000
0003F80000
0000600000
ENDCHAR
STARTCHAR brokenbar
ENCODING 166
SWIDTH 354 0
DWIDTH 12 0
BBX 9 57 1 -4
BITMAP
3E00
7F00
7F00
7F00
FF00
FF80
FF80
FF80
FF80
FF80
FF80
FF80
FF80
FF80
FF80
FF80
FF80
FF80
FF80
FF80
FF80
FF80
FF80
FF80
FF80
FF80
FF80
FF80
0000
0000
0000
0000
0000
0000
0000
7F00
7F00
7F00
7F00
7F00
7F00
7F00
7F00
7F00
7F00
7F00
7F00
7F00
3F00
3F00
3E00
3E00
3E00
3E00
3E00
1C00
1C00
ENDCHAR
STARTCHAR dieresis
ENCODING 168
SWIDTH 433 0
DWIDTH 15 0
BBX 13 6 0 45
BITMAP
7870
F8F8
F8F8
FCF8
FCF8
78F0
ENDCHAR
STARTCHAR logicalnot
ENCODING 172
SWIDTH 923 0
DWIDTH 32 0
BBX 27 17 1 7
BITMAP
07FFC000
FFFFFE00
FFFFFF80
FFFFFFC0
7FFFFFE0
00003FE0
00003FE0
00001FE0
00001FE0
00001FE0
00001FE0
00001FE0
00001FE0
00001FE0
00001FE0
00001FE0
00000300
ENDCHAR
STARTCHAR hyphen.dup3
ENCODING 173
SWIDTH 1000 0
DWIDTH 35 0
BBX 31 7 0 13
BITMAP
1FFFFE00
3FFFFFF8
7FFFFFFE
FFFFFFFE
7FFFFFFC
7FFFFFF8
1FFFFFE0
ENDCHAR
STARTCHAR macron
ENCODING 175
SWIDTH 866 0
DWIDTH 30 0
BBX 27 4 1 43
BITMAP
1FFFFF80
FFFFFFE0
FFFFFFE0
3FFFFFC0
ENDCHAR
STARTCHAR degree
ENCODING 176
SWIDTH 687 0
DWIDTH 24 0
BBX 21 17 0 33
BITMAP
03FE00
0FFFC0
1FFFE0
3FFFE0
7F87F0
FF03F0
FF03F8
FF03F8
FF03F8
FF03F8
FF83F8
FF87F0
7FCFE0
7FFFE0
3FFFC0
0FFF00
03F800
ENDCHAR
STARTCHAR plusminus
ENCODING 177
SWIDTH 1000 0
DWIDTH 35 0
BBX 33 43 0 3
BITMAP
0007E00000
0007F00000
0007F00000
000FF00000
000FF00000
000FF00000
000FF00000
001FF00000
001FF00000
0FFFF00000
3FFFFFE000
FFFFFFFE00
FFFFFFFF80
FFFFFFFF80
7FFFFFFF80
3FFFFFFF00
07FFFFF800
001FF00000
001FF00000
001FF00000
003FF00000
003FF00000
003FF00000
001FF00000
001FF00000
001FF00000
000FE00000
0007C00000
0000000000
0000000000
0000000000
0000000000
0000000000
0000000000
0000000000
01FF800000
1FFFFF8000
7FFFFFFC00
7FFFFFFE00
FFFFFFFE00
7FFFFFFC00
3FFFFFF800
0FFFFF0000
ENDCHAR
STARTCHAR acute
ENCODING 180
SWIDTH 512 0
DWIDTH 18 0
BBX 15 8 0 42
BITMAP
007C
03FE
07FE
1FFC
7FF8
FFE0
FF80
7F00
ENDCHAR
STARTCHAR periodcentered
ENCODING 183
SWIDTH 411 0
DWIDTH 14 0
BBX 11 12 1 18
BITMAP
3F80
7FC0
7FC0
7FE0
FFE0
FFE0
FFE0
FFE0
FFE0
7FE0
3FC0
0E00
ENDCHAR
STARTCHAR cedilla
ENCODING 184
SWIDTH 529 0
DWIDTH 19 0
BBX 16 10 1 -4
BITMAP
01E0
1FC0
7F80
FF80
FF80
FF9F
FFBE
7FFC
7FF8
1FC0
ENDCHAR
STARTCHAR questiondown
ENCODING 191
SWIDTH 761 0
DWIDTH 27 0
BBX 25 50 0 -1
BITMAP
000F8000
003FE000
007FF000
007FF000
007FF000
007FF000
007FF000
007FF000
003FF000
003FE000
001FE000
000FC000
00000000
00000000
00000000
000FC000
003FE000
003FE000
007FE000
007FE000
00FFE000
00FFC000
01FFC000
01FF8000
03FF8000
07FF0000
0FFE0000
0FFC0000
1FF80000
3FF80000
3FF00000
7FE07800
7FC07C00
7FC07E00
FF807F00
FF807F00
FF807F00
FF007F80
FF807F80
FF807F80
FF807F80
7F807F00
7FC0FF00
3FC0FF00
3FE1FE00
1FFFFE00
07FFFC00
03FFF800
00FFE000
00020000
ENDCHAR
STARTCHAR Agrave
ENCODING 192
SWIDTH 877 0
DWIDTH 31 0
BBX 29 66 0 0
BITMAP
007C0000
00FF8000
00FFC000
007FF000
003FFC00
000FFE00
0003FE00
0000FC00
00000000
00000000
00000000
00000000
00000000
00000000
00000000
000FC000
001FE000
003FF000
003FF000
007FF000
007FF800
00FFF800
00FFFC00
00FFFC00
01FFFE00
01FFFE00
01FDFE00
01FDFF00
03FDFF00
03FDFF00
03F9FF00
07F9FF80
07F9FF80
07F8FF80
0FF8FF80
0FF0FFC0
0FF0FFC0
0FF0FFC0
1FF07FC0
1FF07FE0
1FE07FE0
1FE07FE0
3FE07FE0
3FE07FE0
3FE03FE0
3FC03FF0
3FC03FF0
7FC03FF0
7FC03FF0
7F801FF0
7F9F9FF0
7FFFFFF0
7FFFFFF0
7FFFFFF8
7F000FF8
7F000FF8
FF000FF8
FF000FF8
FE0007F8
FE0007F8
FE0007F8
FE0007F0
FE0007F0
FE0007F0
7C0003F0
3C0001E0
ENDCHAR
STARTCHAR Aacute
ENCODING 193
SWIDTH 877 0
DWIDTH 31 0
BBX 29 66 0 0
BITMAP
00007E00
0001FF00
0007FF00
001FFE00
003FF800
007FE000
007FC000
003F0000
00000000
00000000
00000000
00000000
00000000
00000000
00000000
000FC000
001FE000
003FF000
003FF000
007FF000
007FF800
00FFF800
00FFFC00
00FFFC00
01FFFE00
01FFFE00
01FDFE00
01FDFF00
03FDFF00
03FDFF00
03F9FF00
07F9FF80
07F9FF80
07F8FF80
0FF8FF80
0FF0FFC0
0FF0FFC0
0FF0FFC0
1FF07FC0
1FF07FE0
1FE07FE0
1FE07FE0
3FE07FE0
3FE07FE0
3FE03FE0
3FC03FF0
3FC03FF0
7FC03FF0
7FC03FF0
7F801FF0
7F9F9FF0
7FFFFFF0
7FFFFFF0
7FFFFFF8
7F000FF8
7F000FF8
FF000FF8
FF000FF8
FE0007F8
FE0007F8
FE0007F8
FE0007F0
FE0007F0
FE0007F0
7C0003F0
3C0001E0
ENDCHAR
STARTCHAR Acircumflex
ENCODING 194
SWIDTH 877 0
DWIDTH 31 0
BBX 29 65 0 0
BITMAP
0001C000
0007F000
000FF800
001FFC00
003FFE00
007E7F00
007C3F00
00380E00
00000000
00000000
00000000
00000000
00000000
00000000
000FC000
001FE000
003FF000
003FF000
007FF000
007FF800
00FFF800
00FFFC00
00FFFC00
01FFFE00
01FFFE00
01FDFE00
01FDFF00
03FDFF00
03FDFF00
03F9FF00
07F9FF80
07F9FF80
07F8FF80
0FF8FF80
0FF0FFC0
0FF0FFC0
0FF0FFC0
1FF07FC0
1FF07FE0
1FE07FE0
1FE07FE0
3FE07FE0
3FE07FE0
3FE03FE0
3FC03FF0
3FC03FF0
7FC03FF0
7FC03FF0
7F801FF0
7F9F9FF0
7FFFFFF0
7FFFFFF0
7FFFFFF8
7F000FF8
7F000FF8
FF000FF8
FF000FF8
FE0007F8
FE0007F8
FE0007F8
FE0007F0
FE0007F0
FE0007F0
7C0003F0
3C0001E0
ENDCHAR
STARTCHAR Atilde
ENCODING 195
SWIDTH 877 0
DWIDTH 31 0
BBX 29 63 0 0
BITMAP
003F0000
007F8780
00FBCF80
00F1FF00
00E0FE00
00001000
00000000
00000000
00000000
00000000
00000000
00000000
000FC000
001FE000
003FF000
003FF000
007FF000
007FF800
00FFF800
00FFFC00
00FFFC00
01FFFE00
01FFFE00
01FDFE00
01FDFF00
03FDFF00
03FDFF00
03F9FF00
07F9FF80
07F9FF80
07F8FF80
0FF8FF80
0FF0FFC0
0FF0FFC0
0FF0FFC0
1FF07FC0
1FF07FE0
1FE07FE0
1FE07FE0
3FE07FE0
3FE07FE0
3FE03FE0
3FC03FF0
3FC03FF0
7FC03FF0
7FC03FF0
7F801FF0
7F9F9FF0
7FFFFFF0
7FFFFFF0
7FFFFFF8
7F000FF8
7F000FF8
FF000FF8
FF000FF8
FE0007F8
FE0007F8
FE0007F8
FE0007F0
FE0007F0
FE0007F0
7C0003F0
3C0001E0
ENDCHAR
STARTCHAR Adieresis
ENCODING 196
SWIDTH 877 0
DWIDTH 31 0
BBX 29 64 0 0
BITMAP
003C3800
003C7C00
007E7C00
007E7C00
007E7C00
001C3800
00000000
00000000
00000000
00000000
00000000
00000000
00000000
000FC000
001FE000
003FF000
003FF000
007FF000
007FF800
00FFF800
00FFFC00
00FFFC00
01FFFE00
01FFFE00
01FDFE00
01FDFF00
03FDFF00
03FDFF00
03F9FF00
07F9FF80
07F9FF80
07F8FF80
0FF8FF80
0FF0FFC0
0FF0FFC0
0FF0FFC0
1FF07FC0
1FF07FE0
1FE07FE0
1FE07FE0
3FE07FE0
3FE07FE0
3FE03FE0
3FC03FF0
3FC03FF0
7FC03FF0
7FC03FF0
7F801FF0
7F9F9FF0
7FFFFFF0
7FFFFFF0
7FFFFFF8
7F000FF8
7F000FF8
FF000FF8
FF000FF8
FE0007F8
FE0007F8
FE0007F8
FE0007F0
FE0007F0
FE0007F0
7C0003F0
3C0001E0
ENDCHAR
STARTCHAR Aring
ENCODING 197
SWIDTH 877 0
DWIDTH 31 0
BBX 29 69 0 0
BITMAP
0003C000
000FF000
001FF800
003E3C00
007E3C00
007C3C00
007E3C00
007E3C00
003FF800
001FF000
000FE000
00000000
00000000
00000000
00000000
00000000
00000000
00000000
000FC000
001FE000
003FF000
003FF000
007FF000
007FF800
00FFF800
00FFFC00
00FFFC00
01FFFE00
01FFFE00
01FDFE00
01FDFF00
03FDFF00
03FDFF00
03F9FF00
07F9FF80
07F9FF80
07F8FF80
0FF8FF80
0FF0FFC0
0FF0FFC0
0FF0FFC0
1FF07FC0
1FF07FE0
1FE07FE0
1FE07FE0
3FE07FE0
3FE07FE0
3FE03FE0
3FC03FF0
3FC03FF0
7FC03FF0
7FC03FF0
7F801FF0
7F9F9FF0
7FFFFFF0
7FFFFFF0
7FFFFFF8
7F000FF8
7F000FF8
FF000FF8
FF000FF8
FE0007F8
FE0007F8
FE0007F8
FE0007F0
FE0007F0
FE0007F0
7C0003F0
3C0001E0
ENDCHAR
STARTCHAR AE
ENCODING 198
SWIDTH 1264 0
DWIDTH 44 0
BBX 44 52 0 -1
BITMAP
000FC1FFFF00
001FFFFFFFC0
003FFFFFFFE0
003FFFFFFFF0
007FFFFFFFE0
007FFFFFFFC0
00FFFF00E000
00FFFF000000
00FFFF000000
01FFFF000000
01FFFF000000
01FFFF000000
03FFFF000000
03FFFF000000
03FFFF000000
03FBFF000000
07FBFF000000
07FBFF000000
07FBFF000000
0FFBFF000000
0FF7FF000000
0FF7FF000000
1FF7FF000000
1FF7FF000000
1FF7FF000000
1FE7FF000000
3FE7FF000000
3FE7FF000000
3FE7FF800000
3FE7FF800000
3FC7FF800000
3FC3FF800000
7FC3FFFFF000
7FC3FFFFF800
7F83FFFFF000
7F83FFFFE000
7FFFFFFE0000
7FFFFF800000
7FFFFF800000
7F01FF800000
FF01FF800000
FF01FF800000
FF01FF800000
FE00FF800000
FE00FF800000
FE00FF803F80
FE007F8FFFC0
FE007FFFFFC0
FC007FFFFF80
FC003FFFFE00
7C001FFFF000
080003F80000
ENDCHAR
STARTCHAR Ccedilla
ENCODING 199
SWIDTH 1037 0
DWIDTH 36 0
BBX 34 58 0 -7
BITMAP
0001FF8000
0007FFC000
000FFFF000
003FF1F800
007FC0FC00
00FF807E00
01FF807E00
03FF003F00
07FE003F00
07FE003F80
0FFE003F80
0FFC003F80
1FFC001FC0
1FFC001FC0
3FF8001FC0
3FF8003FC0
3FF8003F80
7FF8001F00
7FF8000000
7FF0000000
7FF0000000
7FF0000000
7FF0000000
FFF0000000
FFF0000000
FFF0000000
FFF0000000
FFF0000000
FFF0000000
FFF0000000
FFF0000000
7FF0000000
7FF0000000
7FF0000000
7FF0000000
7FF8000000
7FF8001F80
3FF8003FC0
3FF8007FC0
3FF8007FC0
1FFC007FC0
1FFC007F80
0FFC00FF80
0FFE00FF00
07FE00FF00
03FF01FE00
03FF81FE00
01FFE7FC00
007FFFF800
003FFFE000
0007FF8000
0001FC0000
0003FC0000
0003FC0000
0007F80000
001FF80000
003FF00000
001FC00000
ENDCHAR
STARTCHAR Egrave
ENCODING 200
SWIDTH 970 0
DWIDTH 34 0
BBX 33 64 0 0
BITMAP
001F800000
003FE00000
003FF80000
001FFE0000
0007FF0000
0001FF8000
0000FF8000
00003F0000
0000000000
0000000000
0000000000
0000000000
01CFF00000
03FFFFF000
03FFFFFE00
07FFFFFF00
07FFFFFF80
0FFFFFFF80
0FF8FFFF00
0FF8007000
0FF8000000
1FF8000000
1FF8000000
1FF8000000
1FF8000000
3FF8000000
3FF8000000
3FF8000000
3FF0000000
3FF0000000
7FF0000000
7FF0000000
7FF0000000
7FF0000000
7FF0000000
7FF0000000
7FF0000000
7FF0000000
7FF0000000
7FF0000000
FFF0000000
FFF0000000
FFE0000000
FFE0000000
FFFFE00000
FFFFFC0000
FFFFFE0000
7FFFFE0000
7FFFF80000
7FE0000000
7FE0000000
7FE0000000
7FE0000000
7FE0000000
3FE0000000
3FE0000000
3FE0000000
3FE0000000
3FE03F8000
1FFFFFE000
1FFFFFE000
1FFFFFC000
07FFFF8000
003FF80000
ENDCHAR
STARTCHAR Eacute
ENCODING 201
SWIDTH 970 0
DWIDTH 34 0
BBX 33 65 0 0
BITMAP
00000F8000
00007FC000
0000FFC000
0003FF8000
000FFF0000
001FFC0000
001FF00000
000FC00000
0000000000
0000000000
0000000000
0000000000
0000000000
01CFF00000
03FFFFF000
03FFFFFE00
07FFFFFF00
07FFFFFF80
0FFFFFFF80
0FF8FFFF00
0FF8007000
0FF8000000
1FF8000000
1FF8000000
1FF8000000
1FF8000000
3FF8000000
3FF8000000
3FF8000000
3FF0000000
3FF0000000
7FF0000000
7FF0000000
7FF0000000
7FF0000000
7FF0000000
7FF0000000
7FF0000000
7FF0000000
7FF0000000
7FF0000000
FFF0000000
FFF0000000
FFE0000000
FFE0000000
FFFFE00000
FFFFFC0000
FFFFFE0000
7FFFFE0000
7FFFF80000
7FE0000000
7FE0000000
7FE0000000
7FE0000000
7FE0000000
3FE0000000
3FE0000000
3FE0000000
3FE0000000
3FE03F8000
1FFFFFE000
1FFFFFE000
1FFFFFC000
07FFFF8000
003FF80000
ENDCHAR
STARTCHAR Ecircumflex
ENCODING 202
SWIDTH 970 0
DWIDTH 34 0
BBX 33 64 0 0
BITMAP
0000F00000
0003FC0000
0007FE0000
000FFF0000
001FFF8000
001F9F8000
001F0F8000
000E078000
0000000000
0000000000
0000000000
0000000000
01CFF00000
03FFFFF000
03FFFFFE00
07FFFFFF00
07FFFFFF80
0FFFFFFF80
0FF8FFFF00
0FF8007000
0FF8000000
1FF8000000
1FF8000000
1FF8000000
1FF8000000
3FF8000000
3FF8000000
3FF8000000
3FF0000000
3FF0000000
7FF0000000
7FF0000000
7FF0000000
7FF0000000
7FF0000000
7FF0000000
7FF0000000
7FF0000000
7FF0000000
7FF0000000
FFF0000000
FFF0000000
FFE0000000
FFE0000000
FFFFE00000
FFFFFC0000
FFFFFE0000
7FFFFE0000
7FFFF80000
7FE0000000
7FE0000000
7FE0000000
7FE0000000
7FE0000000
3FE0000000
3FE0000000
3FE0000000
3FE0000000
3FE03F8000
1FFFFFE000
1FFFFFE000
1FFFFFC000
07FFFF8000
003FF80000
ENDCHAR
STARTCHAR Edieresis
ENCODING 203
SWIDTH 970 0
DWIDTH 34 0
BBX 33 63 0 0
BITMAP
0002000000
000F1E0000
001F9F0000
001F9F0000
001F9F0000
000F1F0000
0000040000
0000000000
0000000000
0000000000
0000000000
01CFF00000
03FFFFF000
03FFFFFE00
07FFFFFF00
07FFFFFF80
0FFFFFFF80
0FF8FFFF00
0FF8007000
0FF8000000
1FF8000000
1FF8000000
1FF8000000
1FF8000000
3FF8000000
3FF8000000
3FF8000000
3FF0000000
3FF0000000
7FF0000000
7FF0000000
7FF0000000
7FF0000000
7FF0000000
7FF0000000
7FF0000000
7FF0000000
7FF0000000
7FF0000000
FFF0000000
FFF0000000
FFE0000000
FFE0000000
FFFFE00000
FFFFFC0000
FFFFFE0000
7FFFFE0000
7FFFF80000
7FE0000000
7FE0000000
7FE0000000
7FE0000000
7FE0000000
3FE0000000
3FE0000000
3FE0000000
3FE0000000
3FE03F8000
1FFFFFE000
1FFFFFE000
1FFFFFC000
07FFFF8000
003FF80000
ENDCHAR
STARTCHAR Igrave
ENCODING 204
SWIDTH 427 0
DWIDTH 15 0
BBX 15 64 0 0
BITMAP
FF00
FFC0
FFE0
3FF8
1FFC
07FE
01FE
0078
0000
0000
0000
0000
0000
0F00
1FC0
3FE0
3FE0
3FE0
3FE0
3FE0
3FE0
3FF0
3FF0
3FF0
3FF0
3FF0
7FF0
7FF0
7FF0
7FF0
7FF0
7FF0
7FF0
7FF0
7FF0
7FF0
FFF0
FFF0
FFF0
FFF0
FFF0
FFF0
FFF0
FFF0
FFF0
FFF0
FFE0
FFE0
FFE0
7FE0
7FE0
7FE0
7FE0
7FE0
7FE0
7FC0
7FC0
7FC0
7FC0
7FC0
3F80
3F80
3F80
1F80
ENDCHAR
STARTCHAR Iacute
ENCODING 205
SWIDTH 427 0
DWIDTH 15 0
BBX 15 64 0 0
BITMAP
00FC
03FE
0FFE
1FFC
7FF0
FFE0
FF80
7E00
0000
0000
0000
0000
0000
0F00
1FC0
3FE0
3FE0
3FE0
3FE0
3FE0
3FE0
3FF0
3FF0
3FF0
3FF0
3FF0
7FF0
7FF0
7FF0
7FF0
7FF0
7FF0
7FF0
7FF0
7FF0
7FF0
FFF0
FFF0
FFF0
FFF0
FFF0
FFF0
FFF0
FFF0
FFF0
FFF0
FFE0
FFE0
FFE0
7FE0
7FE0
7FE0
7FE0
7FE0
7FE0
7FC0
7FC0
7FC0
7FC0
7FC0
3F80
3F80
3F80
1F80
ENDCHAR
STARTCHAR Icircumflex
ENCODING 206
SWIDTH 427 0
DWIDTH 15 0
BBX 14 63 0 0
BITMAP
0FC0
1FE0
3FF0
7FF8
FDFC
F8FC
F03C
6018
0000
0000
0000
0000
0F00
1FC0
3FE0
3FE0
3FE0
3FE0
3FE0
3FE0
3FF0
3FF0
3FF0
3FF0
3FF0
7FF0
7FF0
7FF0
7FF0
7FF0
7FF0
7FF0
7FF0
7FF0
7FF0
FFF0
FFF0
FFF0
FFF0
FFF0
FFF0
FFF0
FFF0
FFF0
FFF0
FFE0
FFE0
FFE0
7FE0
7FE0
7FE0
7FE0
7FE0
7FE0
7FC0
7FC0
7FC0
7FC0
7FC0
3F80
3F80
3F80
1F80
ENDCHAR
STARTCHAR Idieresis
ENCODING 207
SWIDTH 427 0
DWIDTH 15 0
BBX 13 62 0 0
BITMAP
7870
78F8
FCF8
FCF8
7CF8
3878
0000
0000
0000
0000
0000
0F00
1FC0
3FE0
3FE0
3FE0
3FE0
3FE0
3FE0
3FF0
3FF0
3FF0
3FF0
3FF0
7FF0
7FF0
7FF0
7FF0
7FF0
7FF0
7FF0
7FF0
7FF0
7FF0
FFF0
FFF0
FFF0
FFF0
FFF0
FFF0
FFF0
FFF0
FFF0
FFF0
FFE0
FFE0
FFE0
7FE0
7FE0
7FE0
7FE0
7FE0
7FE0
7FC0
7FC0
7FC0
7FC0
7FC0
3F80
3F80
3F80
1F80
ENDCHAR
STARTCHAR Eth
ENCODING 208
SWIDTH 1088 0
DWIDTH 38 0
BBX 41 52 -5 -1
BITMAP
000780E00000
007FCFFC0000
007FFFFF0000
00FFFFFF8000
00FFFFFFC000
01FFE7FFE000
01FFC1FFE000
01FF80FFF000
01FF807FF800
01FF803FF800
01FF801FFC00
01FF801FFC00
03FF800FFE00
03FF800FFE00
03FF8007FF00
03FF8007FF00
03FF8007FF00
03FF8007FF00
03FF8007FF80
03FF0003FF80
03FF0003FF80
03FF0003FF80
3FFF0003FF80
7FFF0003FF80
FFFFF803FF80
7FFFFC03FF80
7FFFFC03FF80
1FFFFC03FF80
03FFF003FF80
03FF0007FF80
03FF0007FF00
03FF0007FF00
03FF0007FF00
03FF0007FF00
03FF000FFE00
03FF000FFE00
03FF000FFE00
03FF001FFC00
03FF001FFC00
03FF001FF800
03FF003FF800
03FF003FF000
01FF007FE000
01FF00FFE000
01FF00FFC000
01FF01FF8000
00FF03FF0000
00FF8FFE0000
007FFFF80000
007FFFF00000
003FFFC00000
000E00000000
ENDCHAR
STARTCHAR Ntilde
ENCODING 209
SWIDTH 1011 0
DWIDTH 35 0
BBX 29 56 2 -1
BITMAP
00000080
03FC03E0
0FFF0FE0
1F9FFFC0
3F07FF80
3E00FC00
1C000000
00000000
00000000
00000000
0C0003E0
1E0007E0
3F0007F0
3F8007F0
3F8007F0
7FC00FF0
7FC00FF0
7FE00FF0
7FE00FF0
7FF00FF8
7FF00FF8
FFF00FF8
FFF80FF8
FFF80FF8
FFFC0FF8
FFFC0FF8
FFFE0FF8
FFFE0FF8
FFBE0FF8
FFBF0FF8
FF9F0FF8
FF9F8FF8
FF8F8FF8
FF8FCFF8
FF87CFF8
FF87EFF8
FF87EFF8
FF83FFF8
FF83FFF8
FF81FFF8
FF81FFF8
FF81FFF8
FF80FFF8
FF80FFF8
FF807FF8
FF807FF8
FF807FF8
FF803FF8
FF803FF8
7F801FF8
7F801FF8
7F801FF8
7F800FF0
7F800FF0
3F0007E0
1C000180
ENDCHAR
STARTCHAR Ograve
ENCODING 210
SWIDTH 1187 0
DWIDTH 42 0
BBX 39 68 0 -1
BITMAP
0003C00000
000FF80000
000FFE0000
0007FF0000
0001FFC000
0000FFE000
00003FE000
00000FC000
0000000000
0000000000
0000000000
0000000000
0000000000
0000000000
0000000000
0000000000
0001FFE000
000FFFF800
003FFFFC00
007FFFFF00
00FFE1FF80
01FF80FF80
03FF007FC0
07FE003FE0
0FFC003FE0
0FFC003FF0
1FF8001FF0
1FF8001FF8
3FF0001FF8
3FF0000FF8
3FF0000FFC
7FE0000FFC
7FE0000FFC
7FE0000FFC
7FE00007FE
7FE00007FE
FFE00007FE
FFE00007FE
FFE00007FE
FFE00007FE
FFE00007FE
FFE00007FE
FFE00007FE
FFE00007FE
FFE00007FE
FFE00007FE
FFE00007FE
FFE00007FE
FFE00007FE
7FE0000FFE
7FE0000FFC
7FE0000FFC
7FE0000FFC
7FF0001FFC
3FF0001FF8
3FF0001FF8
3FF8003FF8
1FF8003FF0
1FF8007FF0
0FFC00FFE0
07FE00FFC0
07FE01FFC0
03FF03FF80
01FFFFFF00
007FFFFC00
003FFFF800
000FFFE000
0001FE0000
ENDCHAR
STARTCHAR Oacute
ENCODING 211
SWIDTH 1187 0
DWIDTH 42 0
BBX 39 67 0 -1
BITMAP
000007F000
00001FF800
00007FF000
0000FFE000
0003FF8000
0003FF0000
0003FC0000
0001F00000
0000000000
0000000000
0000000000
0000000000
0000000000
0000000000
0000000000
0001FFE000
000FFFF800
003FFFFC00
007FFFFF00
00FFE1FF80
01FF80FF80
03FF007FC0
07FE003FE0
0FFC003FE0
0FFC003FF0
1FF8001FF0
1FF8001FF8
3FF0001FF8
3FF0000FF8
3FF0000FFC
7FE0000FFC
7FE0000FFC
7FE0000FFC
7FE00007FE
7FE00007FE
FFE00007FE
FFE00007FE
FFE00007FE
FFE00007FE
FFE00007FE
FFE00007FE
FFE00007FE
FFE00007FE
FFE00007FE
FFE00007FE
FFE00007FE
FFE00007FE
FFE00007FE
7FE0000FFE
7FE0000FFC
7FE0000FFC
7FE0000FFC
7FF0001FFC
3FF0001FF8
3FF0001FF8
3FF8003FF8
1FF8003FF0
1FF8007FF0
0FFC00FFE0
07FE00FFC0
07FE01FFC0
03FF03FF80
01FFFFFF00
007FFFFC00
003FFFF800
000FFFE000
0001FE0000
ENDCHAR
STARTCHAR Ocircumflex
ENCODING 212
SWIDTH 1187 0
DWIDTH 42 0
BBX 39 67 0 -1
BITMAP
00007E0000
0001FF0000
0003FF8000
0007FFC000
0007EFE000
000FC7E000
000781E000
0000000000
0000000000
0000000000
0000000000
0000000000
0000000000
0000000000
0000000000
0001FFE000
000FFFF800
003FFFFC00
007FFFFF00
00FFE1FF80
01FF80FF80
03FF007FC0
07FE003FE0
0FFC003FE0
0FFC003FF0
1FF8001FF0
1FF8001FF8
3FF0001FF8
3FF0000FF8
3FF0000FFC
7FE0000FFC
7FE0000FFC
7FE0000FFC
7FE00007FE
7FE00007FE
FFE00007FE
FFE00007FE
FFE00007FE
FFE00007FE
FFE00007FE
FFE00007FE
FFE00007FE
FFE00007FE
FFE00007FE
FFE00007FE
FFE00007FE
FFE00007FE
FFE00007FE
7FE0000FFE
7FE0000FFC
7FE0000FFC
7FE0000FFC
7FF0001FFC
3FF0001FF8
3FF0001FF8
3FF8003FF8
1FF8003FF0
1FF8007FF0
0FFC00FFE0
07FE00FFC0
07FE01FFC0
03FF03FF80
01FFFFFF00
007FFFFC00
003FFFF800
000FFFE000
0001FE0000
ENDCHAR
STARTCHAR Otilde
ENCODING 213
SWIDTH 1187 0
DWIDTH 42 0
BBX 39 65 0 -1
BITMAP
0000F80000
0003FC3C00
0003FE7C00
00078FF800
000707F000
000000C000
0000000000
0000000000
0000000000
0000000000
0000000000
0000000000
0000000000
0001FFE000
000FFFF800
003FFFFC00
007FFFFF00
00FFE1FF80
01FF80FF80
03FF007FC0
07FE003FE0
0FFC003FE0
0FFC003FF0
1FF8001FF0
1FF8001FF8
3FF0001FF8
3FF0000FF8
3FF0000FFC
7FE0000FFC
7FE0000FFC
7FE0000FFC
7FE00007FE
7FE00007FE
FFE00007FE
FFE00007FE
FFE00007FE
FFE00007FE
FFE00007FE
FFE00007FE
FFE00007FE
FFE00007FE
FFE00007FE
FFE00007FE
FFE00007FE
FFE00007FE
FFE00007FE
7FE0000FFE
7FE0000FFC
7FE0000FFC
7FE0000FFC
7FF0001FFC
3FF0001FF8
3FF0001FF8
3FF8003FF8
1FF8003FF0
1FF8007FF0
0FFC00FFE0
07FE00FFC0
07FE01FFC0
03FF03FF80
01FFFFFF00
007FFFFC00
003FFFF800
000FFFE000
0001FE0000
ENDCHAR
STARTCHAR Odieresis
ENCODING 214
SWIDTH 1187 0
DWIDTH 42 0
BBX 39 65 0 -1
BITMAP
0003E3C000
0003E7C000
0003E7E000
0003E7E000
0003E7E000
0000000000
0000000000
0000000000
0000000000
0000000000
0000000000
0000000000
0000000000
0001FFE000
000FFFF800
003FFFFC00
007FFFFF00
00FFE1FF80
01FF80FF80
03FF007FC0
07FE003FE0
0FFC003FE0
0FFC003FF0
1FF8001FF0
1FF8001FF8
3FF0001FF8
3FF0000FF8
3FF0000FFC
7FE0000FFC
7FE0000FFC
7FE0000FFC
7FE00007FE
7FE00007FE
FFE00007FE
FFE00007FE
FFE00007FE
FFE00007FE
FFE00007FE
FFE00007FE
FFE00007FE
FFE00007FE
FFE00007FE
FFE00007FE
FFE00007FE
FFE00007FE
FFE00007FE
7FE0000FFE
7FE0000FFC
7FE0000FFC
7FE0000FFC
7FF0001FFC
3FF0001FF8
3FF0001FF8
3FF8003FF8
1FF8003FF0
1FF8007FF0
0FFC00FFE0
07FE00FFC0
07FE01FFC0
03FF03FF80
01FFFFFF00
007FFFFC00
003FFFF800
000FFFE000
0001FE0000
ENDCHAR
STARTCHAR multiply
ENCODING 215
SWIDTH 726 0
DWIDTH 25 0
BBX 22 18 1 9
BITMAP
FC0060
FF07F8
7F9FF8
3FFFF0
3FFFE0
1FFFC0
0FFF00
0FFE00
1FFF00
3FFF80
7FFFC0
7FFFE0
FFFFF0
FF9FF8
7F0FFC
0007FC
0001FC
000020
ENDCHAR
STARTCHAR Oslash
ENCODING 216
SWIDTH 1187 0
DWIDTH 42 0
BBX 44 53 -1 -1
BITMAP
00000F800000
0000FFF00080
0007FFFC03F0
000FFFFF07E0
003FFFFF8FC0
007FF07FFFC0
00FFC03FFF80
01FF801FFF00
03FF801FFE00
03FF000FFC00
07FE000FFC00
0FFE000FFC00
0FFC000FFC00
0FFC001FFE00
1FF8003FFE00
1FF8007FFE00
1FF800FFFE00
3FF801FFFF00
3FF001FFFF00
3FF003FFFF00
3FF007FBFF00
3FF00FF3FF00
3FF01FF3FF00
3FF01FE3FF00
3FF03FC3FF00
3FF07F81FF80
3FF0FF81FF80
3FF1FF01FF80
3FF1FE03FF00
3FF3FC03FF00
3FF7FC03FF00
3FF7F803FF00
3FFFF003FF00
3FFFE003FF00
3FFFE003FF00
3FFFC007FF00
3FFF8007FE00
3FFF0007FE00
1FFF0007FE00
1FFE000FFE00
1FFC000FFC00
0FFC001FFC00
0FFC001FF800
0FFE003FF800
1FFE003FF000
1FFF007FE000
3FFF80FFE000
7FFFC1FFC000
7F7FFFFF8000
FF3FFFFE0000
FE0FFFFC0000
3C03FFF00000
00007F000000
ENDCHAR
STARTCHAR Ugrave
ENCODING 217
SWIDTH 1000 0
DWIDTH 35 0
BBX 33 64 0 -1
BITMAP
0006000000
003FC00000
003FF00000
001FFC0000
000FFE0000
0003FF0000
0001FF8000
00007F0000
0000080000
0000000000
0000000000
01C0000000
07F0000000
07F0001E00
0FF0001F00
0FF0001F00
0FF0001F80
1FF0001F80
1FF0001F80
1FF0001F80
1FF0001F80
3FF0001F80
3FF0003F80
3FF0003F80
3FF0003F80
7FF0003F80
7FF0003F80
7FF0003F80
7FF0003F80
7FF0003F00
7FF0003F00
7FF0003F00
7FF0003F00
7FF0003F00
7FF0003F00
7FF0003F00
7FF0003F00
FFF0007F00
FFF0007F00
FFF0007F00
FFF0007F00
FFF0007F00
FFF0007F00
FFF0007E00
7FF0007E00
7FF0007E00
7FF0007E00
7FF000FE00
7FF000FE00
7FF000FC00
7FF000FC00
3FF000FC00
3FF801F800
3FF801F800
1FF803F000
1FF803F000
1FF807E000
0FFC0FC000
0FFC0FC000
07FE3F8000
03FFFF0000
01FFFC0000
007FF80000
000F800000
ENDCHAR
STARTCHAR Uacute
ENCODING 218
SWIDTH 1000 0
DWIDTH 35 0
BBX 33 64 0 -1
BITMAP
00000FC000
00003FE000
0000FFE000
0003FFC000
0007FF0000
000FFC0000
000FF80000
0007E00000
0000000000
0000000000
0000000000
01C0000000
07F0000000
07F0001E00
0FF0001F00
0FF0001F00
0FF0001F80
1FF0001F80
1FF0001F80
1FF0001F80
1FF0001F80
3FF0001F80
3FF0003F80
3FF0003F80
3FF0003F80
7FF0003F80
7FF0003F80
7FF0003F80
7FF0003F80
7FF0003F00
7FF0003F00
7FF0003F00
7FF0003F00
7FF0003F00
7FF0003F00
7FF0003F00
7FF0003F00
FFF0007F00
FFF0007F00
FFF0007F00
FFF0007F00
FFF0007F00
FFF0007F00
FFF0007E00
7FF0007E00
7FF0007E00
7FF0007E00
7FF000FE00
7FF000FE00
7FF000FC00
7FF000FC00
3FF000FC00
3FF801F800
3FF801F800
1FF803F000
1FF803F000
1FF807E000
0FFC0FC000
0FFC0FC000
07FE3F8000
03FFFF0000
01FFFC0000
007FF80000
000F800000
ENDCHAR
STARTCHAR Ucircumflex
ENCODING 219
SWIDTH 1000 0
DWIDTH 35 0
BBX 33 64 0 -1
BITMAP
0000F80000
0001FC0000
0003FF0000
0007FF8000
000FDF8000
001F8FC000
001F07C000
0006038000
0000000000
0000000000
0000000000
01C0000000
07F0000000
07F0001E00
0FF0001F00
0FF0001F00
0FF0001F80
1FF0001F80
1FF0001F80
1FF0001F80
1FF0001F80
3FF0001F80
3FF0003F80
3FF0003F80
3FF0003F80
7FF0003F80
7FF0003F80
7FF0003F80
7FF0003F80
7FF0003F00
7FF0003F00
7FF0003F00
7FF0003F00
7FF0003F00
7FF0003F00
7FF0003F00
7FF0003F00
FFF0007F00
FFF0007F00
FFF0007F00
FFF0007F00
FFF0007F00
FFF0007F00
FFF0007E00
7FF0007E00
7FF0007E00
7FF0007E00
7FF000FE00
7FF000FE00
7FF000FC00
7FF000FC00
3FF000FC00
3FF801F800
3FF801F800
1FF803F000
1FF803F000
1FF807E000
0FFC0FC000
0FFC0FC000
07FE3F8000
03FFFF0000
01FFFC0000
007FF80000
000F800000
ENDCHAR
STARTCHAR Udieresis
ENCODING 220
SWIDTH 1000 0
DWIDTH 35 0
BBX 33 63 0 -1
BITMAP
0007060000
000F8F0000
000F9F8000
000F9F8000
000F9F8000
00070F0000
0000000000
0000000000
0000000000
0000000000
01C0000000
07F0000000
07F0001E00
0FF0001F00
0FF0001F00
0FF0001F80
1FF0001F80
1FF0001F80
1FF0001F80
1FF0001F80
3FF0001F80
3FF0003F80
3FF0003F80
3FF0003F80
7FF0003F80
7FF0003F80
7FF0003F80
7FF0003F80
7FF0003F00
7FF0003F00
7FF0003F00
7FF0003F00
7FF0003F00
7FF0003F00
7FF0003F00
7FF0003F00
FFF0007F00
FFF0007F00
FFF0007F00
FFF0007F00
FFF0007F00
FFF0007F00
FFF0007E00
7FF0007E00
7FF0007E00
7FF0007E00
7FF000FE00
7FF000FE00
7FF000FC00
7FF000FC00
3FF000FC00
3FF801F800
3FF801F800
1FF803F000
1FF803F000
1FF807E000
0FFC0FC000
0FFC0FC000
07FE3F8000
03FFFF0000
01FFFC0000
007FF80000
000F800000
ENDCHAR
STARTCHAR Yacute
ENCODING 221
SWIDTH 1021 0
DWIDTH 36 0
BBX 34 63 1 -1
BITMAP
00001FC000
00007FE000
0001FFC000
0007FF8000
000FFE0000
000FF80000
000FF00000
0003800000
0000000000
0000000000
0000000000
3E00000000
7F00000FC0
7F80001FC0
7F80001FC0
FFC0003FC0
FFC0003FC0
FFC0007F80
FFE0007F80
FFE0007F80
7FF000FF80
7FF000FF00
7FF001FF00
7FF801FF00
7FF803FF00
3FFC03FE00
3FFC03FE00
1FFC07FC00
1FFE07FC00
0FFE07F800
0FFE0FF800
07FF0FF800
07FF1FF000
03FF1FF000
03FF9FE000
01FFBFE000
01FFFFC000
00FFFFC000
007FFF8000
007FFF8000
003FFF0000
003FFF0000
003FFF0000
001FFE0000
001FFE0000
001FFE0000
000FFC0000
000FFC0000
001FFC0000
001FFC0000
001FFC0000
001FFC0000
001FFE0000
001FFE0000
001FFE0000
001FFE0000
001FFE0000
001FFE0000
001FFC0000
001FFC0000
000FFC0000
000FF80000
0003F00000
ENDCHAR
STARTCHAR Thorn
ENCODING 222
SWIDTH 1000 0
DWIDTH 35 0
BBX 33 54 0 0
BITMAP
01C0000000
07F0000000
0FF0000000
0FF0000000
1FF0000000
1FF0000000
1FF0000000
3FF0000000
3FF0000000
3FF0000000
3FF0000000
7FF0000000
7FF0FF8000
7FF1FFC000
7FF7FFE000
7FF7FFF000
7FFFFFF800
7FFFFFFC00
7FFF1FFC00
7FFE1FFE00
7FFC0FFE00
7FFC0FFF00
7FF80FFF00
7FF807FF00
7FF007FF00
FFF007FF00
FFF007FF80
FFF007FF80
FFF007FF80
FFF007FF80
FFF007FF00
FFF007FF00
FFF80FFF00
FFF80FFF00
FFFC0FFE00
FFFC0FFE00
FFFE1FFC00
FFFF1FFC00
FFFFFFF800
FFFFFFF000
FFEFFFE000
FFE7FFC000
FFE1FF0000
FFE07C0000
7FE0000000
7FE0000000
7FE0000000
7FE0000000
7FE0000000
3FE0000000
3FE0000000
3FE0000000
1FE0000000
0FC0000000
ENDCHAR
STARTCHAR germandbls
ENCODING 223
SWIDTH 945 0
DWIDTH 33 0
BBX 32 52 -1 -1
BITMAP
00FF0000
03FFE000
07FFF800
1FFFFE00
1FF3FF00
3FE0FF80
3FE07F80
3FE03FC0
7FE03FE0
7FC01FE0
7FC01FE0
7FC01FF0
7FC00FF0
7FC00FF0
7FC00FF0
7FC00FF0
7F801FF0
7F801FF0
7F803FE0
7F803FE0
7F807FC0
7FC0FFC0
7FC3FF80
7FCFFF00
7FDFFF00
7FDFFFC0
7FCFFFE0
7FC03FF0
7FC01FF0
FFC00FF8
FFC007FC
FFC007FC
FFC007FC
FFC003FE
FFC003FE
FFC003FE
FFC003FE
FFC003FE
FFC003FF
FFC003FF
FFC003FE
FFC003FE
FFC007FE
FFC007FE
FFC00FFC
FFC03FFC
FF80FFF8
FF87FFF0
7F8FFFE0
7F8FFF80
7F0FFE00
0800E000
ENDCHAR
STARTCHAR agrave
ENCODING 224
SWIDTH 923 0
DWIDTH 32 0
BBX 30 59 0 1
BITMAP
00180000
00FF0000
00FFC000
007FF000
003FFC00
000FFE00
0003FE00
0001FE00
00003000
00000000
00000000
00000000
00000000
00000000
001FF000
007FF800
00FFFE00
01FFFF00
03FFFF80
07FC7F80
07F87FC0
07F83FC0
0FF03FE0
0FF03FE0
0FF01FE0
0FE01FF0
0FE01FF0
0FE01FF0
0FC01FF8
0FC01FF8
03801FF8
00001FF8
00001FF8
00001FF8
00001FF8
01FE1FF8
07FF9FFC
0FFFFFFC
1FFFFFFC
3FF1FFFC
7FE07FFC
7FE07FFC
7FE03FFC
7FC01FFC
FFC01FFC
FFC00FFC
FFC01FFC
7FC01FFC
7FC03FFC
7FE03FFC
7FE07FFC
3FE0FFFC
3FFBFFF8
1FFFFFF8
0FFFEFF8
03FF8FF8
00780FF8
00000FF8
00000FF0
ENDCHAR
STARTCHAR aacute
ENCODING 225
SWIDTH 923 0
DWIDTH 32 0
BBX 30 59 0 1
BITMAP
00007E00
0001FF00
0007FE00
001FFC00
003FF800
007FE000
007FC000
003E0000
00000000
00000000
00000000
00000000
00000000
00000000
001FF000
007FF800
00FFFE00
01FFFF00
03FFFF80
07FC7F80
07F87FC0
07F83FC0
0FF03FE0
0FF03FE0
0FF01FE0
0FE01FF0
0FE01FF0
0FE01FF0
0FC01FF8
0FC01FF8
03801FF8
00001FF8
00001FF8
00001FF8
00001FF8
01FE1FF8
07FF9FFC
0FFFFFFC
1FFFFFFC
3FF1FFFC
7FE07FFC
7FE07FFC
7FE03FFC
7FC01FFC
FFC01FFC
FFC00FFC
FFC01FFC
7FC01FFC
7FC03FFC
7FE03FFC
7FE07FFC
3FE0FFFC
3FFBFFF8
1FFFFFF8
0FFFEFF8
03FF8FF8
00780FF8
00000FF8
00000FF0
ENDCHAR
STARTCHAR acircumflex
ENCODING 226
SWIDTH 923 0
DWIDTH 32 0
BBX 30 59 0 1
BITMAP
0001C000
0007F000
000FF800
001FFC00
003FFE00
007E7F00
007C3F00
00380E00
00000000
00000000
00000000
00000000
00000000
00000000
001FF000
007FF800
00FFFE00
01FFFF00
03FFFF80
07FC7F80
07F87FC0
07F83FC0
0FF03FE0
0FF03FE0
0FF01FE0
0FE01FF0
0FE01FF0
0FE01FF0
0FC01FF8
0FC01FF8
03801FF8
00001FF8
00001FF8
00001FF8
00001FF8
01FE1FF8
07FF9FFC
0FFFFFFC
1FFFFFFC
3FF1FFFC
7FE07FFC
7FE07FFC
7FE03FFC
7FC01FFC
FFC01FFC
FFC00FFC
FFC01FFC
7FC01FFC
7FC03FFC
7FE03FFC
7FE07FFC
3FE0FFFC
3FFBFFF8
1FFFFFF8
0FFFEFF8
03FF8FF8
00780FF8
00000FF8
00000FF0
ENDCHAR
STARTCHAR atilde
ENCODING 227
SWIDTH 923 0
DWIDTH 32 0
BBX 30 57 0 1
BITMAP
001E0000
007F8780
007FCF80
00F1FF00
00E0FE00
00003800
00000000
00000000
00000000
00000000
00000000
00000000
001FF000
007FF800
00FFFE00
01FFFF00
03FFFF80
07FC7F80
07F87FC0
07F83FC0
0FF03FE0
0FF03FE0
0FF01FE0
0FE01FF0
0FE01FF0
0FE01FF0
0FC01FF8
0FC01FF8
03801FF8
00001FF8
00001FF8
00001FF8
00001FF8
01FE1FF8
07FF9FFC
0FFFFFFC
1FFFFFFC
3FF1FFFC
7FE07FFC
7FE07FFC
7FE03FFC
7FC01FFC
FFC01FFC
FFC00FFC
FFC01FFC
7FC01FFC
7FC03FFC
7FE03FFC
7FE07FFC
3FE0FFFC
3FFBFFF8
1FFFFFF8
0FFFEFF8
03FF8FF8
00780FF8
00000FF8
00000FF0
ENDCHAR
STARTCHAR adieresis
ENCODING 228
SWIDTH 923 0
DWIDTH 32 0
BBX 30 57 0 1
BITMAP
003C3800
003C7C00
007E7C00
007E7C00
007E7C00
001C3800
00000000
00000000
00000000
00000000
00000000
00000000
001FF000
007FF800
00FFFE00
01FFFF00
03FFFF80
07FC7F80
07F87FC0
07F83FC0
0FF03FE0
0FF03FE0
0FF01FE0
0FE01FF0
0FE01FF0
0FE01FF0
0FC01FF8
0FC01FF8
03801FF8
00001FF8
00001FF8
00001FF8
00001FF8
01FE1FF8
07FF9FFC
0FFFFFFC
1FFFFFFC
3FF1FFFC
7FE07FFC
7FE07FFC
7FE03FFC
7FC01FFC
FFC01FFC
FFC00FFC
FFC01FFC
7FC01FFC
7FC03FFC
7FE03FFC
7FE07FFC
3FE0FFFC
3FFBFFF8
1FFFFFF8
0FFFEFF8
03FF8FF8
00780FF8
00000FF8
00000FF0
ENDCHAR
STARTCHAR aring
ENCODING 229
SWIDTH 923 0
DWIDTH 32 0
BBX 30 61 0 1
BITMAP
0007E000
001FF800
003F7C00
003E3C00
007E3C00
007C3C00
007E3C00
003E7C00
003FF800
001FF000
00038000
00000000
00000000
00000000
00000000
00000000
001FF000
007FF800
00FFFE00
01FFFF00
03FFFF80
07FC7F80
07F87FC0
07F83FC0
0FF03FE0
0FF03FE0
0FF01FE0
0FE01FF0
0FE01FF0
0FE01FF0
0FC01FF8
0FC01FF8
03801FF8
00001FF8
00001FF8
00001FF8
00001FF8
01FE1FF8
07FF9FFC
0FFFFFFC
1FFFFFFC
3FF1FFFC
7FE07FFC
7FE07FFC
7FE03FFC
7FC01FFC
FFC01FFC
FFC00FFC
FFC01FFC
7FC01FFC
7FC03FFC
7FE03FFC
7FE07FFC
3FE0FFFC
3FFBFFF8
1FFFFFF8
0FFFEFF8
03FF8FF8
00780FF8
00000FF8
00000FF0
ENDCHAR
STARTCHAR ae
ENCODING 230
SWIDTH 1531 0
DWIDTH 54 0
BBX 51 48 1 0
BITMAP
00000000080000
00000000FFC000
003FC003FFF000
00FFF00FFFFC00
01FFFC1FF0FE00
03FFFE3FE0FF00
07FFFE7FC0FF00
07F8FFFF807F80
0FF0FFFF007F80
0FF07FFF007F80
1FE07FFE007FC0
1FE07FFE007FC0
1FE03FFE007FC0
1FC03FFC007FC0
1FC03FFC00FFC0
1FC03FFC00FFC0
1FC03FFC00FFC0
1F803FF800FF80
0F803FF801FF80
00003FF803FF00
00003FF80FFF00
00001FFFFFFE00
00001FFFFFFC00
03F81FFFFFF000
0FFF1FFFFFE000
1FFF9FFFFF0000
3FFFFFFC000000
7FF3FFFC000000
7FE1FFFC000000
FFC0FFFC000000
FFC07FFC000000
FF803FFE000000
FF803FFE000000
FF801FFE000000
FF803FFE000700
FF803FFF000FC0
FF803FFF000FE0
FFC07FFF801FE0
FFC0FFFF801FE0
7FC1FFFFC01FC0
7FE3FFFFC03FC0
3FFFFFFFE07F80
1FFFFFFFF9FF00
07FF9FFFFFFE00
01F81FFFFFF800
00001FF3FFE000
00001FE0FF8000
00000780000000
ENDCHAR
STARTCHAR ccedilla
ENCODING 231
SWIDTH 945 0
DWIDTH 33 0
BBX 31 52 0 -6
BITMAP
000FFC00
003FFF00
00FFFFC0
01FF0FE0
03FE0FF0
07FC07F0
0FF807F8
0FF807F8
1FF007FC
1FF007FC
3FE007FC
3FE007FC
7FE007FC
7FC007FC
7FC007FC
FFC00FFC
FFC00FFC
FFC00FF8
FFC01FF8
FFC01FF0
FF800FE0
FF800000
FF800000
FFC00000
FFC00000
FFC00000
FFC00000
FFC00000
FFC00000
FFC00000
7FE00000
7FE00000
7FE00000
7FF00030
3FF000FC
3FF000FE
1FF800FE
1FF801FE
0FFC01FE
0FFC03FC
07FE07F8
03FF0FF0
01FFFFE0
00FFFFC0
003FFF00
000FF800
0003F000
0007F000
000FF000
00FFE000
01FFC000
00FF0000
ENDCHAR
STARTCHAR egrave
ENCODING 232
SWIDTH 959 0
DWIDTH 34 0
BBX 31 60 0 1
BITMAP
001F8000
003FE000
003FF800
001FFE00
0007FF00
0001FF80
0000FF80
00001F00
00000000
00000000
00000000
00000000
00000000
0000F000
000FFF00
001FFFC0
007FEFE0
00FF87F0
01FF03F8
03FE03FC
07FC03FC
0FFC03FE
0FF803FE
1FF803FE
1FF003FE
3FF003FE
3FE003FE
3FE003FE
7FE003FE
7FE007FE
7FE007FE
7FC00FFC
FFC01FFC
FFC07FF8
FFFFFFF0
FFFFFFE0
FFFFFF80
FFFFFF00
FFFFF800
FFC00000
FFC00000
FFE00000
7FE00000
7FE00000
7FE00000
7FE00000
7FF00000
3FF00020
3FF000FC
3FF800FE
1FF801FE
1FF801FE
0FFC01FE
07FE03FC
07FF07F8
03FF9FF0
01FFFFE0
007FFF80
001FFE00
0007F000
ENDCHAR
STARTCHAR eacute
ENCODING 233
SWIDTH 959 0
DWIDTH 34 0
BBX 31 60 0 1
BITMAP
00001FC0
00007FC0
0001FFC0
0007FF80
000FFE00
001FF800
001FF000
00078000
00000000
00000000
00000000
00000000
00000000
0000F000
000FFF00
001FFFC0
007FEFE0
00FF87F0
01FF03F8
03FE03FC
07FC03FC
0FFC03FE
0FF803FE
1FF803FE
1FF003FE
3FF003FE
3FE003FE
3FE003FE
7FE003FE
7FE007FE
7FE007FE
7FC00FFC
FFC01FFC
FFC07FF8
FFFFFFF0
FFFFFFE0
FFFFFF80
FFFFFF00
FFFFF800
FFC00000
FFC00000
FFE00000
7FE00000
7FE00000
7FE00000
7FE00000
7FF00000
3FF00020
3FF000FC
3FF800FE
1FF801FE
1FF801FE
0FFC01FE
07FE03FC
07FF07F8
03FF9FF0
01FFFFE0
007FFF80
001FFE00
0007F000
ENDCHAR
STARTCHAR ecircumflex
ENCODING 234
SWIDTH 959 0
DWIDTH 34 0
BBX 31 60 0 1
BITMAP
0000F000
0003FC00
0007FE00
000FFF00
001FFF80
001F9F80
001F0F80
001E0780
00000000
00000000
00000000
00000000
00000000
0000F000
000FFF00
001FFFC0
007FEFE0
00FF87F0
01FF03F8
03FE03FC
07FC03FC
0FFC03FE
0FF803FE
1FF803FE
1FF003FE
3FF003FE
3FE003FE
3FE003FE
7FE003FE
7FE007FE
7FE007FE
7FC00FFC
FFC01FFC
FFC07FF8
FFFFFFF0
FFFFFFE0
FFFFFF80
FFFFFF00
FFFFF800
FFC00000
FFC00000
FFE00000
7FE00000
7FE00000
7FE00000
7FE00000
7FF00000
3FF00020
3FF000FC
3FF800FE
1FF801FE
1FF801FE
0FFC01FE
07FE03FC
07FF07F8
03FF9FF0
01FFFFE0
007FFF80
001FFE00
0007F000
ENDCHAR
STARTCHAR edieresis
ENCODING 235
SWIDTH 959 0
DWIDTH 34 0
BBX 31 58 0 1
BITMAP
000F1E00
001F1F00
001F9F00
001F9F00
001F9F00
00020E00
00000000
00000000
00000000
00000000
00000000
0000F000
000FFF00
001FFFC0
007FEFE0
00FF87F0
01FF03F8
03FE03FC
07FC03FC
0FFC03FE
0FF803FE
1FF803FE
1FF003FE
3FF003FE
3FE003FE
3FE003FE
7FE003FE
7FE007FE
7FE007FE
7FC00FFC
FFC01FFC
FFC07FF8
FFFFFFF0
FFFFFFE0
FFFFFF80
FFFFFF00
FFFFF800
FFC00000
FFC00000
FFE00000
7FE00000
7FE00000
7FE00000
7FE00000
7FF00000
3FF00020
3FF000FC
3FF800FE
1FF801FE
1FF801FE
0FFC01FE
07FE03FC
07FF07F8
03FF9FF0
01FFFFE0
007FFF80
001FFE00
0007F000
ENDCHAR
STARTCHAR igrave
ENCODING 236
SWIDTH 439 0
DWIDTH 15 0
BBX 15 44 0 2
BITMAP
FF00
FFC0
7FE0
3FF8
1FFC
07FE
01FE
0078
0000
0000
0000
0000
0000
0FC0
0FE0
1FE0
3FE0
3FF0
7FF0
7FF0
7FF0
FFF0
FFF8
FFF8
FFF8
FFF8
FFF8
FFF8
FFF8
FFF8
FFF8
FFF8
FFF8
FFF8
FFF8
FFF8
FFF8
FFF0
FFF0
FFF0
7FF0
7FE0
3FE0
1FC0
ENDCHAR
STARTCHAR iacute
ENCODING 237
SWIDTH 439 0
DWIDTH 15 0
BBX 15 45 -1 2
BITMAP
0030
01FE
07FE
1FFC
3FF8
FFE0
FFC0
FF00
1800
0000
0000
0000
0000
0000
07E0
07F0
0FF0
1FF0
1FF8
3FF8
3FF8
3FF8
7FF8
7FFC
7FFC
7FFC
7FFC
7FFC
7FFC
7FFC
7FFC
7FFC
7FFC
7FFC
7FFC
7FFC
7FFC
7FFC
7FF8
7FF8
7FF8
3FF8
3FF0
1FF0
0FE0
ENDCHAR
STARTCHAR icircumflex
ENCODING 238
SWIDTH 439 0
DWIDTH 15 0
BBX 15 42 -2 2
BITMAP
07E0
0FF0
3FF8
3FFC
7E7E
FC3E
781E
0000
0000
0000
0000
03F0
03F8
07F8
0FF8
0FFC
1FFC
1FFC
1FFC
3FFC
3FFE
3FFE
3FFE
3FFE
3FFE
3FFE
3FFE
3FFE
3FFE
3FFE
3FFE
3FFE
3FFE
3FFE
3FFE
3FFC
3FFC
3FFC
1FFC
1FF8
0FF8
07F0
ENDCHAR
STARTCHAR idieresis
ENCODING 239
SWIDTH 439 0
DWIDTH 15 0
BBX 13 43 0 2
BITMAP
70F0
F8F0
F8F8
F9F8
F9F8
70F0
0000
0000
0000
0000
0000
0000
0FC0
0FE0
1FE0
3FE0
3FF0
7FF0
7FF0
7FF0
FFF0
FFF8
FFF8
FFF8
FFF8
FFF8
FFF8
FFF8
FFF8
FFF8
FFF8
FFF8
FFF8
FFF8
FFF8
FFF8
FFF0
FFF0
FFF0
7FF0
7FE0
3FE0
1FC0
ENDCHAR
STARTCHAR eth
ENCODING 240
SWIDTH 1000 0
DWIDTH 35 0
BBX 33 48 0 -1
BITMAP
0FF0000000
07FE07F000
03FF3FF000
01FFFFE000
007FFFC000
003FFF8000
001FFE0000
007FFC0000
01FFFE0000
03FFFF0000
0FFFFF8000
1FFEFF8000
1FF87FC000
0FE07FE000
03803FF000
00003FF800
00001FF800
00001FFC00
00000FFC00
001FFFFE00
007FFFFE00
01FFFFFF00
03FFFFFF00
0FFFFFFF00
0FFE07FF00
1FF807FF00
3FF007FF80
3FE007FF80
7FE007FF80
7FC007FF00
7FC007FF00
FF8007FF00
FF8007FF00
FF800FFF00
FF800FFE00
FF800FFE00
FF801FFE00
FFC01FFC00
7FC03FFC00
7FC07FF800
7FE0FFF000
3FF1FFE000
3FFFFFC000
1FFFFF8000
0FFFFE0000
07FFFC0000
01FFE00000
003C000000
ENDCHAR
STARTCHAR ntilde
ENCODING 241
SWIDTH 1078 0
DWIDTH 38 0
BBX 36 56 -1 0
BITMAP
001F003C00
00FFE07E00
01FFF9FC00
03F1FFF800
03E03FE000
07C0000000
0000000000
0000000000
0000000000
0000000000
0FC01FE000
0FC07FF000
1FE0FFF800
1FE1FFFC00
1FE3F7FE00
3FE3C3FF00
3FE783FF80
3FE701FF80
7FEE01FFC0
7FEE01FFC0
7FEE01FFC0
7FFC01FFC0
7FFC01FFE0
FFFC01FFE0
FFF801FFE0
FFF801FFE0
FFF801FFE0
FFF801FFE0
FFF801FFE0
FFF801FFF0
FFF801FFF0
FFF801FFF0
FFF001FFF0
FFF001FFF0
7FF001FFF0
7FF003FFF0
7FF003FFF0
7FF003FFF0
7FF003FFF0
7FF003FFF0
7FF003FFF0
7FF003FFE0
3FF003FFE0
3FF003FFE0
3FF803FFE0
3FF803FFE0
3FF803FFC0
3FF807FFC0
1FF807FFC0
1FF807FF80
1FF807FF80
1FF803FF80
0FF803FF00
0FF801FF00
07F000FE00
0040000000
ENDCHAR
STARTCHAR ograve
ENCODING 242
SWIDTH 1096 0
DWIDTH 38 0
BBX 36 60 0 0
BITMAP
0007F00000
000FFC0000
0007FE0000
0003FF8000
0001FFC000
00007FE000
00001FE000
0000078000
0000000000
0000000000
0000000000
0000000000
0000000000
0000000000
0000000000
0001FF8000
000FFFE000
001FFFF000
007FFFF800
00FFE1FC00
01FFC0FE00
03FF807F00
07FF007F00
07FE003F80
0FFC003F80
0FFC001FC0
1FF8001FC0
1FF8001FE0
3FF8000FE0
3FF0000FE0
7FF0000FE0
7FF0000FF0
7FE0000FF0
7FE00007F0
FFE00007F0
FFE00007F0
FFE00007F0
FFE00007F0
FFC00007F0
FFC00007F0
FFC00007F0
FFC00007F0
FFC00007F0
FFC00007F0
FFE0000FF0
FFE0000FF0
7FE0000FE0
7FE0000FE0
7FE0001FE0
3FF0001FC0
3FF0003FC0
1FF8003F80
1FFC007F80
0FFC007F00
07FE01FE00
03FF83FC00
01FFFFF800
007FFFE000
000FFF8000
0000600000
ENDCHAR
STARTCHAR oacute
ENCODING 243
SWIDTH 1096 0
DWIDTH 38 0
BBX 36 62 0 0
BITMAP
000007C000
00001FF000
00007FE000
0001FFE000
0003FF8000
0007FE0000
0007FC0000
0003F00000
0000000000
0000000000
0000000000
0000000000
0000000000
0000000000
0000000000
0000000000
0000000000
0001FF8000
000FFFE000
001FFFF000
007FFFF800
00FFE1FC00
01FFC0FE00
03FF807F00
07FF007F00
07FE003F80
0FFC003F80
0FFC001FC0
1FF8001FC0
1FF8001FE0
3FF8000FE0
3FF0000FE0
7FF0000FE0
7FF0000FF0
7FE0000FF0
7FE00007F0
FFE00007F0
FFE00007F0
FFE00007F0
FFE00007F0
FFC00007F0
FFC00007F0
FFC00007F0
FFC00007F0
FFC00007F0
FFC00007F0
FFE0000FF0
FFE0000FF0
7FE0000FE0
7FE0000FE0
7FE0001FE0
3FF0001FC0
3FF0003FC0
1FF8003F80
1FFC007F80
0FFC007F00
07FE01FE00
03FF83FC00
01FFFFF800
007FFFE000
000FFF8000
0000600000
ENDCHAR
STARTCHAR ocircumflex
ENCODING 244
SWIDTH 1096 0
DWIDTH 38 0
BBX 36 61 0 0
BITMAP
0000780000
0000FE0000
0003FF0000
0007FF8000
000FFFC000
000FCFC000
000F87C000
000701C000
0000000000
0000000000
0000000000
0000000000
0000000000
0000000000
0000000000
0000000000
0001FF8000
000FFFE000
001FFFF000
007FFFF800
00FFE1FC00
01FFC0FE00
03FF807F00
07FF007F00
07FE003F80
0FFC003F80
0FFC001FC0
1FF8001FC0
1FF8001FE0
3FF8000FE0
3FF0000FE0
7FF0000FE0
7FF0000FF0
7FE0000FF0
7FE00007F0
FFE00007F0
FFE00007F0
FFE00007F0
FFE00007F0
FFC00007F0
FFC00007F0
FFC00007F0
FFC00007F0
FFC00007F0
FFC00007F0
FFE0000FF0
FFE0000FF0
7FE0000FE0
7FE0000FE0
7FE0001FE0
3FF0001FC0
3FF0003FC0
1FF8003F80
1FFC007F80
0FFC007F00
07FE01FE00
03FF83FC00
01FFFFF800
007FFFE000
000FFF8000
0000600000
ENDCHAR
STARTCHAR otilde
ENCODING 245
SWIDTH 1096 0
DWIDTH 38 0
BBX 36 59 0 0
BITMAP
0003800000
000FE04000
001FF1E000
001E7FE000
003C3FC000
00181F8000
0000000000
0000000000
0000000000
0000000000
0000000000
0000000000
0000000000
0000000000
0001FF8000
000FFFE000
001FFFF000
007FFFF800
00FFE1FC00
01FFC0FE00
03FF807F00
07FF007F00
07FE003F80
0FFC003F80
0FFC001FC0
1FF8001FC0
1FF8001FE0
3FF8000FE0
3FF0000FE0
7FF0000FE0
7FF0000FF0
7FE0000FF0
7FE00007F0
FFE00007F0
FFE00007F0
FFE00007F0
FFE00007F0
FFC00007F0
FFC00007F0
FFC00007F0
FFC00007F0
FFC00007F0
FFC00007F0
FFE0000FF0
FFE0000FF0
7FE0000FE0
7FE0000FE0
7FE0001FE0
3FF0001FC0
3FF0003FC0
1FF8003F80
1FFC007F80
0FFC007F00
07FE01FE00
03FF83FC00
01FFFFF800
007FFFE000
000FFF8000
0000600000
ENDCHAR
STARTCHAR odieresis
ENCODING 246
SWIDTH 1096 0
DWIDTH 38 0
BBX 36 60 0 0
BITMAP
0007870000
0007CF8000
0007CF8000
0007CF8000
0007CF8000
0003878000
0000000000
0000000000
0000000000
0000000000
0000000000
0000000000
0000000000
0000000000
0000000000
0001FF8000
000FFFE000
001FFFF000
007FFFF800
00FFE1FC00
01FFC0FE00
03FF807F00
07FF007F00
07FE003F80
0FFC003F80
0FFC001FC0
1FF8001FC0
1FF8001FE0
3FF8000FE0
3FF0000FE0
7FF0000FE0
7FF0000FF0
7FE0000FF0
7FE00007F0
FFE00007F0
FFE00007F0
FFE00007F0
FFE00007F0
FFC00007F0
FFC00007F0
FFC00007F0
FFC00007F0
FFC00007F0
FFC00007F0
FFE0000FF0
FFE0000FF0
7FE0000FE0
7FE0000FE0
7FE0001FE0
3FF0001FC0
3FF0003FC0
1FF8003F80
1FFC007F80
0FFC007F00
07FE01FE00
03FF83FC00
01FFFFF800
007FFFE000
000FFF8000
0000600000
ENDCHAR
STARTCHAR divide
ENCODING 247
SWIDTH 1000 0
DWIDTH 35 0
BBX 31 39 -1 2
BITMAP
0007C000
001FF000
001FF000
001FF800
003FF800
003FF800
003FF800
003FF800
003FF800
003FF800
001FF800
0007E000
00000000
00000000
00000000
00000000
07FFF800
3FFFFFE0
7FFFFFFE
FFFFFFFE
FFFFFFFE
7FFFFFFC
3FFFFFF0
00000000
00000000
00000000
00000000
0001C000
000FE000
001FF000
001FF800
003FF800
003FF800
003FF800
003FF800
003FF800
003FF800
001FF800
000FE000
ENDCHAR
STARTCHAR oslash
ENCODING 248
SWIDTH 1096 0
DWIDTH 38 0
BBX 38 51 0 -2
BITMAP
0000000030
00000000FC
00000001FC
00000003F8
0001FF07F0
0007FFCFF0
001FFFFFE0
007FFFFFC0
00FFE1FFC0
01FFC0FF80
03FF807F00
07FF00FF00
07FE00FF00
0FFC01FF80
0FFC03FF80
1FF803FFC0
1FF807FFC0
3FF80FFFE0
3FF00FFFE0
7FF01FEFE0
7FF01FEFE0
7FE03FCFF0
7FE03FCFF0
FFE07F87F0
FFE0FF87F0
FFE0FF07F0
FFC1FF07F0
FFC1FE07F0
FFC3FC07F0
FFC3FC07F0
FFC7F807F0
FFC7F807F0
FFCFF007F0
FFDFF00FF0
FFDFE00FF0
FFFFC00FE0
7FFFC00FE0
7FFF801FE0
7FFF801FC0
3FFF001FC0
3FFE003F80
1FFE007F80
0FFC007F00
07FE00FE00
0FFF03FC00
0FFFFFF800
1FFFFFE000
3FDFFF8000
7FC1F80000
7F80000000
3F00000000
ENDCHAR
STARTCHAR ugrave
ENCODING 249
SWIDTH 1085 0
DWIDTH 38 0
BBX 36 60 0 1
BITMAP
007F800000
007FE00000
003FF00000
001FFC0000
000FFE0000
0003FF0000
0000FF0000
00003C0000
0000000000
0000000000
0000000000
0000000000
0000000000
0000001C00
07C0007F00
0FC0007F80
1FE000FF80
1FE000FFC0
3FE000FFC0
3FE001FFC0
7FE001FFE0
7FE001FFE0
7FE001FFE0
7FE001FFE0
7FE001FFE0
7FE001FFE0
FFE001FFE0
FFE001FFE0
FFE001FFF0
FFE001FFF0
FFE001FFF0
FFE001FFF0
FFE001FFF0
FFE001FFF0
FFE001FFF0
FFE001FFF0
FFE001FFF0
FFE001FFF0
FFE003FFF0
FFE003FFF0
FFE003FFF0
FFE003FFF0
FFE003FFF0
FFE003FFF0
FFE003FFF0
7FE007FFF0
7FE007FFF0
7FE007FFF0
7FF00FFFF0
7FF00FFFE0
3FF01FFFE0
3FF01FFFE0
3FF03E7FE0
1FF87E7FE0
1FF8FC7FE0
0FFFFC3FC0
0FFFF83FC0
07FFF00F80
01FFC00000
003E000000
ENDCHAR
STARTCHAR uacute
ENCODING 250
SWIDTH 1085 0
DWIDTH 38 0
BBX 36 60 0 1
BITMAP
00001F8000
0000FF8000
0001FF8000
0007FF0000
001FFE0000
003FF80000
003FE00000
000F800000
0000000000
0000000000
0000000000
0000000000
0000000000
0000001C00
07C0007F00
0FC0007F80
1FE000FF80
1FE000FFC0
3FE000FFC0
3FE001FFC0
7FE001FFE0
7FE001FFE0
7FE001FFE0
7FE001FFE0
7FE001FFE0
7FE001FFE0
FFE001FFE0
FFE001FFE0
FFE001FFF0
FFE001FFF0
FFE001FFF0
FFE001FFF0
FFE001FFF0
FFE001FFF0
FFE001FFF0
FFE001FFF0
FFE001FFF0
FFE001FFF0
FFE003FFF0
FFE003FFF0
FFE003FFF0
FFE003FFF0
FFE003FFF0
FFE003FFF0
FFE003FFF0
7FE007FFF0
7FE007FFF0
7FE007FFF0
7FF00FFFF0
7FF00FFFE0
3FF01FFFE0
3FF01FFFE0
3FF03E7FE0
1FF87E7FE0
1FF8FC7FE0
0FFFFC3FC0
0FFFF83FC0
07FFF00F80
01FFC00000
003E000000
ENDCHAR
STARTCHAR ucircumflex
ENCODING 251
SWIDTH 1085 0
DWIDTH 38 0
BBX 36 61 0 1
BITMAP
0001E00000
0007F00000
000FF80000
001FFE0000
003FFE0000
003F3F0000
003E1F0000
003C0F0000
0000000000
0000000000
0000000000
0000000000
0000000000
0000000000
0000001C00
07C0007F00
0FC0007F80
1FE000FF80
1FE000FFC0
3FE000FFC0
3FE001FFC0
7FE001FFE0
7FE001FFE0
7FE001FFE0
7FE001FFE0
7FE001FFE0
7FE001FFE0
FFE001FFE0
FFE001FFE0
FFE001FFF0
FFE001FFF0
FFE001FFF0
FFE001FFF0
FFE001FFF0
FFE001FFF0
FFE001FFF0
FFE001FFF0
FFE001FFF0
FFE001FFF0
FFE003FFF0
FFE003FFF0
FFE003FFF0
FFE003FFF0
FFE003FFF0
FFE003FFF0
FFE003FFF0
7FE007FFF0
7FE007FFF0
7FE007FFF0
7FF00FFFF0
7FF00FFFE0
3FF01FFFE0
3FF01FFFE0
3FF03E7FE0
1FF87E7FE0
1FF8FC7FE0
0FFFFC3FC0
0FFFF83FC0
07FFF00F80
01FFC00000
003E000000
ENDCHAR
STARTCHAR udieresis
ENCODING 252
SWIDTH 1085 0
DWIDTH 38 0
BBX 36 59 0 1
BITMAP
0004000000
001E3E0000
001F3E0000
001F3E0000
001F3E0000
001F3E0000
0000000000
0000000000
0000000000
0000000000
0000000000
0000000000
0000001C00
07C0007F00
0FC0007F80
1FE000FF80
1FE000FFC0
3FE000FFC0
3FE001FFC0
7FE001FFE0
7FE001FFE0
7FE001FFE0
7FE001FFE0
7FE001FFE0
7FE001FFE0
FFE001FFE0
FFE001FFE0
FFE001FFF0
FFE001FFF0
FFE001FFF0
FFE001FFF0
FFE001FFF0
FFE001FFF0
FFE001FFF0
FFE001FFF0
FFE001FFF0
FFE001FFF0
FFE003FFF0
FFE003FFF0
FFE003FFF0
FFE003FFF0
FFE003FFF0
FFE003FFF0
FFE003FFF0
7FE007FFF0
7FE007FFF0
7FE007FFF0
7FF00FFFF0
7FF00FFFE0
3FF01FFFE0
3FF01FFFE0
3FF03E7FE0
1FF87E7FE0
1FF8FC7FE0
0FFFFC3FC0
0FFFF83FC0
07FFF00F80
01FFC00000
003E000000
ENDCHAR
STARTCHAR yacute
ENCODING 253
SWIDTH 1114 0
DWIDTH 39 0
BBX 36 61 1 0
BITMAP
00000FC000
00003FE000
0000FFE000
0003FFC000
0007FF0000
000FFC0000
000FF80000
0007E00000
0000000000
0000000000
0000000000
0000000000
0000000000
0000000000
07E0000000
0FF0003F00
0FF0007F00
1FF0007F80
1FF000FF80
3FF000FF80
3FF000FFC0
7FF0007FC0
7FF0007FE0
7FF0007FE0
FFF0007FE0
FFF0007FE0
FFF0007FE0
FFF0007FF0
FFF000FFF0
FFF000FFF0
FFF000FFF0
FFF000FFF0
FFF000FFF0
FFF000FFF0
FFF001FFF0
FFF001FFF0
7FF003FFF0
7FF003FFF0
3FF807FFF0
3FF807FFF0
1FF80FFFF0
1FFC1FFFE0
0FFE7FFFE0
07FFFFFFE0
03FFFCFFE0
00FFF8FFE0
001FC0FFE0
000000FFC0
070001FFC0
1FC001FFC0
1FE001FF80
1FE001FF80
1FF003FF00
1FF003FF00
0FF807FE00
0FFC07FC00
07FE1FF800
03FFFFF000
00FFFFE000
003FFF8000
0007FE0000
ENDCHAR
STARTCHAR thorn
ENCODING 254
SWIDTH 989 0
DWIDTH 35 0
BBX 33 65 -1 -8
BITMAP
0080000000
03F0000000
07F0000000
0FF0000000
0FF0000000
1FF8000000
1FF8000000
1FF8000000
1FF8000000
1FF8000000
3FF8000000
3FF8000000
3FF8000000
3FF8000000
3FF8000000
3FF8000000
3FF8000000
3FF8000000
3FF8000000
7FF8000000
7FF8000000
7FF8000000
7FF87F0000
7FF9FFC000
7FFBFFF000
7FFFFFF800
7FFFFFF800
7FFFFFFC00
7FFF1FFE00
7FFE0FFE00
7FFE0FFF00
7FFC0FFF00
7FF807FF00
7FF807FF00
7FF807FF80
7FF007FF80
7FF007FF80
7FF007FF80
7FF007FF80
7FF007FF80
7FF007FF80
FFF807FF80
FFF807FF00
FFF807FF00
FFFC0FFF00
FFFE0FFE00
FFFE0FFE00
FFFF1FFC00
FFFFFFF800
FFFFFFF800
FFFFFFF000
7FF7FFC000
7FF3FF8000
7FF07E0000
7FF0000000
7FE0000000
7FE0000000
7FE0000000
3FE0000000
3FE0000000
3FE0000000
1FE0000000
1FE0000000
0FC0000000
0200000000
ENDCHAR
STARTCHAR ydieresis
ENCODING 255
SWIDTH 1114 0
DWIDTH 39 0
BBX 36 60 1 0
BITMAP
00078F0000
000F8F8000
000FCF8000
000FCF8000
000FCF8000
0000020000
0000000000
0000000000
0000000000
0000000000
0000000000
0000000000
0000000000
07E0000000
0FF0003F00
0FF0007F00
1FF0007F80
1FF000FF80
3FF000FF80
3FF000FFC0
7FF0007FC0
7FF0007FE0
7FF0007FE0
FFF0007FE0
FFF0007FE0
FFF0007FE0
FFF0007FF0
FFF000FFF0
FFF000FFF0
FFF000FFF0
FFF000FFF0
FFF000FFF0
FFF000FFF0
FFF001FFF0
FFF001FFF0
7FF003FFF0
7FF003FFF0
3FF807FFF0
3FF807FFF0
1FF80FFFF0
1FFC1FFFE0
0FFE7FFFE0
07FFFFFFE0
03FFFCFFE0
00FFF8FFE0
001FC0FFE0
000000FFC0
070001FFC0
1FC001FFC0
1FE001FF80
1FE001FF80
1FF003FF00
1FF003FF00
0FF807FE00
0FFC07FC00
07FE1FF800
03FFFFF000
00FFFFE000
003FFF8000
0007FE0000
ENDCHAR
STARTCHAR Ydieresis
ENCODING 376
SWIDTH 1021 0
DWIDTH 36 0
BBX 34 62 1 -1
BITMAP
000F1E0000
001F1F0000
001F9F0000
001F9F0000
001F9F0000
00060E0000
0000000000
0000000000
0000000000
0000000000
3E00000000
7F00000FC0
7F80001FC0
7F80001FC0
FFC0003FC0
FFC0003FC0
FFC0007F80
FFE0007F80
FFE0007F80
7FF000FF80
7FF000FF00
7FF001FF00
7FF801FF00
7FF803FF00
3FFC03FE00
3FFC03FE00
1FFC07FC00
1FFE07FC00
0FFE07F800
0FFE0FF800
07FF0FF800
07FF1FF000
03FF1FF000
03FF9FE000
01FFBFE000
01FFFFC000
00FFFFC000
007FFF8000
007FFF8000
003FFF0000
003FFF0000
003FFF0000
001FFE0000
001FFE0000
001FFE0000
000FFC0000
000FFC0000
001FFC0000
001FFC0000
001FFC0000
001FFC0000
001FFE0000
001FFE0000
001FFE0000
001FFE0000
001FFE0000
001FFE0000
001FFC0000
001FFC0000
000FFC0000
000FF80000
0003F00000
ENDCHAR
STARTCHAR circumflex
ENCODING 710
SWIDTH 470 0
DWIDTH 16 0
BBX 14 8 0 43
BITMAP
07C0
1FE0
3FF0
7FF8
FEFC
FC7C
F83C
6018
ENDCHAR
STARTCHAR uni02C9
ENCODING 713
SWIDTH 451 0
DWIDTH 16 0
BBX 13 3 0 44
BITMAP
7FF8
FFF8
7FF8
ENDCHAR
STARTCHAR dotaccent
ENCODING 729
SWIDTH 223 0
DWIDTH 8 0
BBX 6 6 0 45
BITMAP
78
F8
F8
FC
FC
78
ENDCHAR
STARTCHAR ring
ENCODING 730
SWIDTH 363 0
DWIDTH 13 0
BBX 11 9 0 41
BITMAP
1F00
3FC0
79C0
F1E0
F0E0
F9E0
FBC0
7F80
1E00
ENDCHAR
STARTCHAR ogonek
ENCODING 731
SWIDTH 529 0
DWIDTH 19 0
BBX 16 10 1 -4
BITMAP
01E0
1FC0
7F80
FF80
FF80
FF9F
FFBE
7FFC
7FF8
1FC0
ENDCHAR
STARTCHAR tilde
ENCODING 732
SWIDTH 1000 0
DWIDTH 35 0
BBX 17 6 0 42
BITMAP
3F0000
7F8780
FBCF80
F1FF00
E0FE00
001800
ENDCHAR
STARTCHAR semicolon.dup4
ENCODING 894
SWIDTH 429 0
DWIDTH 15 0
BBX 12 37 0 2
BITMAP
3F80
7FC0
7FE0
7FE0
FFE0
FFE0
FFE0
FFE0
FFE0
7FE0
3FC0
0400
0000
0000
0000
0000
0000
0000
0000
0000
3F80
7FC0
7FE0
3FE0
3FE0
3FE0
3FF0
3FF0
3FF0
3FE0
3FE0
3FE0
3FC0
3FC0
7F80
7F00
FC00
ENDCHAR
STARTCHAR endash
ENCODING 8211
SWIDTH 1150 0
DWIDTH 40 0
BBX 35 7 1 13
BITMAP
1FFFFFC000
7FFFFFFF80
FFFFFFFFE0
FFFFFFFFE0
FFFFFFFFC0
7FFFFFFF80
3FFFFFFC00
ENDCHAR
STARTCHAR emdash
ENCODING 8212
SWIDTH 1282 0
DWIDTH 45 0
BBX 41 7 1 13
BITMAP
0FFFFFFC0000
7FFFFFFFFC00
FFFFFFFFFF80
FFFFFFFFFF00
FFFFFFFFFF00
7FFFFFFFFC00
1FFFFFFFE000
ENDCHAR
STARTCHAR quoteleft
ENCODING 8216
SWIDTH 569 0
DWIDTH 20 0
BBX 11 18 1 32
BITMAP
00E0
07E0
0FE0
1FE0
3FC0
7FC0
7FC0
7FC0
7FC0
FFC0
FFC0
7FC0
7FC0
7FE0
7FE0
3FE0
1FC0
0700
ENDCHAR
STARTCHAR quoteright
ENCODING 8217
SWIDTH 477 0
DWIDTH 17 0
BBX 11 18 2 32
BITMAP
1C00
7F80
FF80
7FC0
7FC0
7FE0
7FE0
7FE0
7FE0
7FE0
7FE0
7FC0
7FC0
7F80
7F80
7F00
FC00
7000
ENDCHAR
STARTCHAR quotesinglbase
ENCODING 8218
SWIDTH 477 0
DWIDTH 17 0
BBX 11 18 1 -6
BITMAP
1C00
7F80
FFC0
7FC0
7FC0
7FE0
7FE0
7FE0
7FE0
7FE0
7FE0
7FC0
7FC0
7F80
7F80
7F00
FC00
7000
ENDCHAR
STARTCHAR quotedblleft
ENCODING 8220
SWIDTH 857 0
DWIDTH 30 0
BBX 24 18 0 32
BITMAP
01E00F
07E03F
0FE07F
1FC0FE
3FC1FE
7FC3FE
7FC3FE
7FC3FE
FFC7FE
FFC7FE
FFC7FE
FFC3FE
7FC3FE
7FC3FE
7FE3FF
3FE1FF
1FC0FE
070038
ENDCHAR
STARTCHAR quotedblright
ENCODING 8221
SWIDTH 831 0
DWIDTH 29 0
BBX 24 18 2 32
BITMAP
1C00E0
7F03F8
FF87FC
FFC7FE
7FC3FE
7FC3FE
7FC3FF
7FE3FF
7FE3FF
7FE3FF
7FC3FE
7FC3FE
7FC3FE
7F83FC
7F03F8
FE07F0
FC07E0
600300
ENDCHAR
STARTCHAR quotedblbase
ENCODING 8222
SWIDTH 831 0
DWIDTH 29 0
BBX 24 17 1 -7
BITMAP
7F03F8
FF87FC
FFC7FE
7FC3FE
7FC3FE
7FE3FF
7FE3FF
7FE3FF
7FE3FF
7FC3FE
7FC3FE
7FC3FE
7F83FC
7F83FC
FF07F8
FC07E0
F00780
ENDCHAR
STARTCHAR bullet
ENCODING 8226
SWIDTH 516 0
DWIDTH 18 0
BBX 14 15 1 17
BITMAP
1FC0
3FE0
7FF0
7FF0
FFF8
FFF8
FFF8
FFF8
FFFC
FFFC
FFFC
FFFC
7FF8
3FF0
0200
ENDCHAR
STARTCHAR ellipsis
ENCODING 8230
SWIDTH 1277 0
DWIDTH 45 0
BBX 41 12 1 -1
BITMAP
06000C003800
7F80FF01FE00
7FC0FF81FF00
FFC1FF83FF00
FFE1FF83FF00
FFE1FFC3FF80
FFE1FFC3FF80
FFE1FFC3FF80
FFE1FFC3FF80
FFE1FFC3FF80
7FE0FFC3FF00
3F807F00FE00
ENDCHAR
STARTCHAR lira
ENCODING 8356
SWIDTH 1000 0
DWIDTH 35 0
BBX 32 52 0 0
BITMAP
000FF800
003FFF00
007FFF80
01FFFFC0
03FF9FE0
03FF0FE0
07FE0000
0FFC0000
0FF80000
1FF80000
1FF00000
1FF00000
1FF00000
3FF00000
3FE00000
3FE00000
3FE00000
3FE00000
3FF00000
1FF00000
1FF00000
1FF00000
1FF00000
1FF80000
3FFFFF00
7FFFFF00
3FFFFE00
07FC0000
07FE0000
3FFFFF00
3FFFFF00
07FFF800
03FE0000
01FF0000
01FF0000
01FF0000
01FF0000
01FF0000
01FF0000
01FF0000
01FF0000
01FF0000
03FE0000
07FE0000
07FE000F
1FFC003F
3FF8007F
7FFFF0FF
FFFFFFFF
FFFFFFFE
FFFFFFFC
1FFFFFE0
ENDCHAR
STARTCHAR Euro
ENCODING 8364
SWIDTH 1000 0
DWIDTH 35 0
BBX 41 53 -1 -2
BITMAP
000000C00000
00000FFC0000
00003FFF0000
00007FFF8000
0001FF8FC000
0003FE07E000
0007FE03F000
000FFC03F000
001FF801F800
001FF801F800
003FF001FC00
007FF000FC00
007FE000FE00
00FFE000FE00
00FFE000FE00
00FFE000FE00
01FFC000FE00
01FFC000FC00
01FFC000F800
03FFC0000000
03FFC0000000
1FFFFF000000
7FFFFFF00000
7FFFFFF00000
1FFFFFC00000
03FF80000000
03FF90000000
7FFFFFC00000
FFFFFFE00000
7FFFFFC00000
07FFFC000000
03FF80000000
03FF80000000
03FF80000000
03FFC0000000
03FFC0000000
03FFC0000000
01FFC000FC00
01FFC001FE00
01FFC001FE00
00FFE003FE00
00FFE003FE00
00FFE003FC00
007FF003FC00
003FF007FC00
003FF807F800
001FF80FF800
000FFE0FF000
0007FFBFE000
0003FFFFC000
0000FFFF0000
00003FFE0000
000007E00000
ENDCHAR
STARTCHAR trademark
ENCODING 8482
SWIDTH 1719 0
DWIDTH 60 0
BBX 56 41 1 13
BITMAP
0000003C000000
03FFC03E000000
7FFFFC7F00007E
FFFFFC7F0000FE
FFFFF87F8001FE
7FFFE07F8001FE
03F8007F8003FE
03F800FFC003FE
03FC00FFC007FE
03FC00FFC007FE
03FC00FFE00FFE
03FC00FFE00FFE
03FC01FFF01FFE
03FC01FFF01FFE
03FC01FFF03FFF
03FC01FEF83FFF
03FC01FEF87DFF
07FC01FEF87DFF
07FC01FE7CFDFF
07FC01FE7CF9FF
07FC01FE7CF9FE
07FC01FE3FF9FE
07FC01FE3FF1FE
07FC01FE3FF1FE
07FC01FE1FF1FE
07FC01FE1FE1FE
07FC01FE1FE1FE
03FC01FE1FC1FE
03FC01FE0FC1FE
03FC01FE0101FE
03FC01FE0001FE
03FC01FE0001FE
03FC01FE0001FE
03F801FE0003FC
03F801FE0003FC
03F801FE0003FC
03F800FE0003FC
01F800FE0001FC
01F000FC0001FC
01F000780001FC
00000000000070
ENDCHAR
STARTCHAR minus
ENCODING 8722
SWIDTH 1000 0
DWIDTH 35 0
BBX 31 7 0 13
BITMAP
1FFFFE00
3FFFFFF8
7FFFFFFE
FFFFFFFE
7FFFFFFC
7FFFFFF8
1FFFFFE0
ENDCHAR
STARTCHAR periodcentered.dup5
ENCODING 8729
SWIDTH 411 0
DWIDTH 14 0
BBX 11 12 1 18
BITMAP
3F80
7FC0
7FC0
7FE0
FFE0
FFE0
FFE0
FFE0
FFE0
7FE0
3FC0
0E00
ENDCHAR
STARTCHAR .notdef
ENCODING -1
SWIDTH 500 0
DWIDTH 18 0
BBX 1 1 0 0
BITMAP
00
ENDCHAR
STARTCHAR nonmarkingreturn
ENCODING -1
SWIDTH 508 0
DWIDTH 18 0
BBX 1 1 0 0
BITMAP
00
ENDCHAR
ENDFONT
